<svg xmlns="http://www.w3.org/2000/svg" xmlns:xlink="http://www.w3.org/1999/xlink" id="body_3" preserveAspectRatio="xMinYMin meet" viewBox="0 0 793 1121"><defs><clipPath id="1"><path id="" clip-rule="evenodd" d="M0 841L0 -0.8900146L0 -0.8900146L595.276 -0.8900146L595.276 -0.8900146L595.276 841L595.276 841L0 841z" /></clipPath></defs><g transform="matrix(1.333333 0 0 1.333333 0 0)"><g clip-path="url(#1)"><g transform="matrix(0.7501463 0 0 0.75 143.88 71.11023)"><g transform="matrix(1 0 0 1 0 0)"><image x="0" y="0" xlink:href="img_05.png" width="410" height="232" /></g></g><g transform="matrix(0.6708075 0 0 0.6699752 90 342.4302)"><g transform="matrix(1 0 0 1 0 0)"><image x="0" y="0" xlink:href="img_06.png" width="322" height="403" /></g></g><path id="192" transform="matrix(1 0 0 -1 0 841)" d="M315 467.6098L585 467.6098L585 332.6098L315 332.6098z" stroke="none" fill="#FFFFFF" fill-rule="nonzero" /><path id="193" transform="matrix(1 0 0 -1 0 841)" d="M315.36 467.6098L315 467.6098L315 467.2498L585 467.2498L585 467.6098L584.64 467.6098L584.64 332.6098L585 332.6098L585 332.9698L315 332.9698L315 332.6098L315.36 332.6098zM314.64 332.6098L314.64 332.2498L315 332.2498L585 332.2498L585.36 332.2498L585.36 332.6098L585.36 467.6098L585.36 467.9698L585 467.9698L315 467.9698L314.64 467.9698L314.64 467.6098z" stroke="none" fill="#000000" fill-rule="nonzero" /></g></g></svg>