<svg xmlns="http://www.w3.org/2000/svg" xmlns:xlink="http://www.w3.org/1999/xlink" id="body_2" preserveAspectRatio="xMinYMin meet" viewBox="0 0 793 1121"><defs><clipPath id="1"><path id="" clip-rule="evenodd" d="M0 841L0 -0.8900146L0 -0.8900146L595.276 -0.8900146L595.276 -0.8900146L595.276 841L595.276 841L0 841z" /></clipPath><clipPath id="2"><path id="" clip-rule="evenodd" d="M383.16 303.5502L373.56 303.5502L373.56 303.5502L373.56 296.3502L373.56 296.3502L383.16 296.3502z" /></clipPath></defs><g transform="matrix(1.333333 0 0 1.333333 0 0)"><g clip-path="url(#1)"><g transform="matrix(0.6845783 0 0 0.6861017 90 268.8702)"><g transform="matrix(1 0 0 1 0 0)"><image x="0" y="0" xlink:href="img_03.png" width="332" height="354" /></g></g><path id="304" transform="matrix(1 0 0 -1 0 841)" d="M342 548.6098L549 548.6098L549 413.6098L342 413.6098z" stroke="none" fill="#FFFFFF" fill-rule="nonzero" /><path id="305" transform="matrix(1 0 0 -1 0 841)" d="M342.36 548.6098L342 548.6098L342 548.2498L549 548.2498L549 548.6098L548.64 548.6098L548.64 413.6098L549 413.6098L549 413.9698L342 413.9698L342 413.6098L342.36 413.6098zM341.64 413.6098L341.64 413.2498L342 413.2498L549 413.2498L549.36 413.2498L549.36 413.6098L549.36 548.6098L549.36 548.9698L549 548.9698L342 548.9698L341.64 548.9698L341.64 548.6098z" stroke="none" fill="#000000" fill-rule="nonzero" /><g clip-path="url(#2)"></g></g></g></svg>