<svg xmlns="http://www.w3.org/2000/svg" xmlns:xlink="http://www.w3.org/1999/xlink" id="body_4" preserveAspectRatio="xMinYMin meet" viewBox="0 0 793 1121"><defs><clipPath id="1"><path id="" clip-rule="evenodd" d="M0 841L0 -0.8900146L0 -0.8900146L595.276 -0.8900146L595.276 -0.8900146L595.276 841L595.276 841L0 841z" /></clipPath></defs><g transform="matrix(1.333333 0 0 1.333333 0 0)"><g clip-path="url(#1)"><g transform="matrix(0.7498678 0 0 0.7501234 127.44 71.11023)"><g transform="matrix(1 0 0 1 0 0)"><image x="0" y="0" xlink:href="img_08.png" width="454" height="243" /></g></g><path id="481" transform="matrix(1 0 0 -1 0 841)" d="M256.08 138.5698L517.08 138.5698L517.08 21.56979L256.08 21.56979z" stroke="none" fill="#FFFFFF" fill-rule="nonzero" /><path id="482" transform="matrix(1 0 0 -1 0 841)" d="M256.44 138.5698L256.08 138.5698L256.08 138.2098L517.08 138.2098L517.08 138.5698L516.72 138.5698L516.72 21.5698L517.08 21.5698L517.08 21.9298L256.08 21.9298L256.08 21.5698L256.44 21.5698zM255.72 21.5698L255.72 21.2098L256.08 21.2098L517.08 21.2098L517.44 21.2098L517.44 21.5698L517.44 138.5698L517.44 138.9298L517.08 138.9298L256.08 138.9298L255.72 138.9298L255.72 138.5698z" stroke="none" fill="#000000" fill-rule="nonzero" /></g></g></svg>