<svg xmlns="http://www.w3.org/2000/svg" xmlns:xlink="http://www.w3.org/1999/xlink" id="body_2" preserveAspectRatio="xMinYMin meet" viewBox="0 0 793 1121"><defs><clipPath id="1"><path id="" clip-rule="evenodd" d="M0 841L0 -0.8900146L0 -0.8900146L595.276 -0.8900146L595.276 -0.8900146L595.276 841L595.276 841L0 841z" /></clipPath></defs><g transform="matrix(1.333333 0 0 1.333333 0 0)"><g clip-path="url(#1)"><g transform="matrix(0.6716667 0 0 0.6705469 126 151.7502)"><g transform="matrix(1 0 0 1 0 0)"><image x="0" y="0" xlink:href="img_04.png" width="144" height="512" /></g></g><path id="160" transform="matrix(1 0 0 -1 0 841)" d="M265.08 672.9298L517.08 672.9298L517.08 492.9298L265.08 492.9298z" stroke="none" fill="#FFFFFF" fill-rule="nonzero" /><path id="161" transform="matrix(1 0 0 -1 0 841)" d="M265.44 672.9298L265.08 672.9298L265.08 672.5698L517.08 672.5698L517.08 672.9298L516.72 672.9298L516.72 492.9298L517.08 492.9298L517.08 493.2898L265.08 493.2898L265.08 492.9298L265.44 492.9298zM264.72 492.9298L264.72 492.5698L265.08 492.5698L517.08 492.5698L517.44 492.5698L517.44 492.9298L517.44 672.9298L517.44 673.2898L517.08 673.2898L265.08 673.2898L264.72 673.2898L264.72 672.9298z" stroke="none" fill="#000000" fill-rule="nonzero" /></g></g></svg>