<svg xmlns="http://www.w3.org/2000/svg" xmlns:xlink="http://www.w3.org/1999/xlink" id="body_3" preserveAspectRatio="xMinYMin meet" viewBox="0 0 793 1121"><defs><clipPath id="1"><path id="" clip-rule="evenodd" d="M0 841L0 -0.8900146L0 -0.8900146L595.276 -0.8900146L595.276 -0.8900146L595.276 841L595.276 841L0 841z" /></clipPath><clipPath id="2"><path id="" clip-rule="evenodd" d="M595.2 765.7902L203.16 765.7902L203.16 765.7902L203.16 667.9902L203.16 667.9902L595.2 667.9902z" /></clipPath></defs><g transform="matrix(1.333333 0 0 1.333333 0 0)"><g clip-path="url(#1)"><g transform="matrix(0.5815384 0 0 0.5829015 248.52 154.7502)"><g transform="matrix(1 0 0 1 0 0)"><image x="0" y="0" xlink:href="img_06.png" width="169" height="386" /></g></g><path id="389" transform="matrix(1 0 0 -1 0 841)" d="M207 169.1698L595.2 169.1698L595.2 79.1698L207 79.1698z" stroke="none" fill="#FFFFFF" fill-rule="nonzero" /><g clip-path="url(#2)"><path id="390" transform="matrix(1 0 0 -1 0 841)" d="M207.36 169.1698L207 169.1698L207 168.8098L603 168.8098L603 169.1698L602.64 169.1698L602.64 79.1698L603 79.1698L603 79.5298L207 79.5298L207 79.1698L207.36 79.1698zM206.64 79.1698L206.64 78.8098L207 78.8098L603 78.8098L603.36 78.8098L603.36 79.1698L603.36 169.1698L603.36 169.5298L603 169.5298L207 169.5298L206.64 169.5298L206.64 169.1698z" stroke="none" fill="#000000" fill-rule="nonzero" /></g></g></g></svg>