<svg xmlns="http://www.w3.org/2000/svg" xmlns:xlink="http://www.w3.org/1999/xlink" id="body_1" preserveAspectRatio="xMinYMin meet" viewBox="0 0 793 1121"><defs><clipPath id="1"><path id="" clip-rule="evenodd" d="M0 841L0 -0.8900146L0 -0.8900146L595.276 -0.8900146L595.276 -0.8900146L595.276 841L595.276 841L0 841z" /></clipPath><clipPath id="2"><path id="" clip-rule="evenodd" d="M595.2 777.7902L230.16 777.7902L230.16 777.7902L230.16 643.9902L230.16 643.9902L595.2 643.9902z" /></clipPath></defs><g transform="matrix(1.333333 0 0 1.333333 0 0)"><g clip-path="url(#1)"><g transform="matrix(0.620177 0 0 0.6247354 227.52 71.11023)"><g transform="matrix(1 0 0 1 0 0)"><image x="0" y="0" xlink:href="img_01.png" width="226" height="359" /></g></g><path id="491" transform="matrix(1 0 0 -1 0 841)" d="M234 193.1698L594 193.1698L594 67.1698L234 67.1698z" stroke="none" fill="#FFFFFF" fill-rule="nonzero" /><g clip-path="url(#2)"><path id="492" transform="matrix(1 0 0 -1 0 841)" d="M234.36 193.1698L234 193.1698L234 192.8098L594 192.8098L594 193.1698L593.64 193.1698L593.64 67.1698L594 67.1698L594 67.5298L234 67.5298L234 67.1698L234.36 67.1698zM233.64 67.1698L233.64 66.8098L234 66.8098L594 66.8098L594.36 66.8098L594.36 67.1698L594.36 193.1698L594.36 193.5298L594 193.5298L234 193.5298L233.64 193.5298L233.64 193.1698z" stroke="none" fill="#000000" fill-rule="nonzero" /></g></g></g></svg>