<svg xmlns="http://www.w3.org/2000/svg" xmlns:xlink="http://www.w3.org/1999/xlink" id="body_7" preserveAspectRatio="xMinYMin meet" viewBox="0 0 793 1121"><defs><clipPath id="1"><path id="" clip-rule="evenodd" d="M0 841L0 -0.8900146L0 -0.8900146L595.276 -0.8900146L595.276 -0.8900146L595.276 841L595.276 841L0 841z" /></clipPath></defs><g transform="matrix(1.333333 0 0 1.333333 0 0)"><g clip-path="url(#1)"><g transform="matrix(0.3630252 0 0 0.3621622 90 71.11023)"><g transform="matrix(1 0 0 1 0 0)"><image x="0" y="0" xlink:href="img_17.png" width="595" height="333" /></g></g><g transform="matrix(0.3809524 0 0 0.3789247 126 191.7102)"><g transform="matrix(1 0 0 1 0 0)"><image x="0" y="0" xlink:href="img_18.png" width="567" height="279" /></g></g><g transform="matrix(0.75 0 0 0.7498493 90 361.3902)"><g transform="matrix(1 0 0 1 0 0)"><image x="0" y="0" xlink:href="img_19.png" width="152" height="398" /></g></g><path id="24" transform="matrix(1 0 0 -1 0 841)" d="M252 436.4098L513 436.4098L513 265.4098L252 265.4098z" stroke="none" fill="#FFFFFF" fill-rule="nonzero" /><path id="25" transform="matrix(1 0 0 -1 0 841)" d="M252.36 436.4098L252 436.4098L252 436.0498L513 436.0498L513 436.4098L512.64 436.4098L512.64 265.4098L513 265.4098L513 265.7698L252 265.7698L252 265.4098L252.36 265.4098zM251.64 265.4098L251.64 265.0498L252 265.0498L513 265.0498L513.36 265.0498L513.36 265.4098L513.36 436.4098L513.36 436.7698L513 436.7698L252 436.7698L251.64 436.7698L251.64 436.4098z" stroke="none" fill="#000000" fill-rule="nonzero" /></g></g></svg>