<svg xmlns="http://www.w3.org/2000/svg" xmlns:xlink="http://www.w3.org/1999/xlink" id="body_5" preserveAspectRatio="xMinYMin meet" viewBox="0 0 793 1121"><defs><clipPath id="1"><path id="" clip-rule="evenodd" d="M0 841L0 -0.8900146L0 -0.8900146L595.276 -0.8900146L595.276 -0.8900146L595.276 841L595.276 841L0 841z" /></clipPath></defs><g transform="matrix(1.333333 0 0 1.333333 0 0)"><g clip-path="url(#1)"><g transform="matrix(0.6779618 0 0 0.6772566 90 352.3902)"><g transform="matrix(1 0 0 1 0 0)"><image x="0" y="0" xlink:href="img_12.png" width="157" height="452" /></g></g><path id="435" transform="matrix(1 0 0 -1 0 841)" d="M234 483.0898L540 483.0898L540 249.0898L234 249.0898z" stroke="none" fill="#FFFFFF" fill-rule="nonzero" /><path id="436" transform="matrix(1 0 0 -1 0 841)" d="M234.36 483.0898L234 483.0898L234 482.7298L540 482.7298L540 483.0898L539.64 483.0898L539.64 249.0898L540 249.0898L540 249.4498L234 249.4498L234 249.0898L234.36 249.0898zM233.64 249.0898L233.64 248.7298L234 248.7298L540 248.7298L540.36 248.7298L540.36 249.0898L540.36 483.0898L540.36 483.4498L540 483.4498L234 483.4498L233.64 483.4498L233.64 483.0898z" stroke="none" fill="#000000" fill-rule="nonzero" /></g></g></svg>