<svg xmlns="http://www.w3.org/2000/svg" xmlns:xlink="http://www.w3.org/1999/xlink" id="body_37" preserveAspectRatio="xMinYMin meet" viewBox="0 0 793 1121"><defs><clipPath id="1"><path id="" clip-rule="evenodd" d="M0 841L0 -0.8900146L0 -0.8900146L595.276 -0.8900146L595.276 -0.8900146L595.276 841L595.276 841L0 841z" /></clipPath></defs><g transform="matrix(1.333333 0 0 1.333333 0 0)"><g clip-path="url(#1)"><g transform="matrix(0.6135252 0 0 0.6118868 90 71.11023)"><g transform="matrix(1 0 0 1 0 0)"><image x="0" y="0" xlink:href="img_90.png" width="417" height="212" /></g></g><g transform="matrix(0.6007895 0 0 0.6013187 90 348.4302)"><g transform="matrix(1 0 0 1 0 0)"><image x="0" y="0" xlink:href="img_91.png" width="456" height="273" /></g></g><path id="407" transform="matrix(1 0 0 -1 0 841)" d="M373.08 493.5298L580.08 493.5298L580.08 376.5298L373.08 376.5298z" stroke="none" fill="#FFFFFF" fill-rule="nonzero" /><path id="408" transform="matrix(1 0 0 -1 0 841)" d="M373.44 493.5298L373.08 493.5298L373.08 493.1698L580.08 493.1698L580.08 493.5298L579.72 493.5298L579.72 376.5298L580.08 376.5298L580.08 376.8898L373.08 376.8898L373.08 376.5298L373.44 376.5298zM372.72 376.5298L372.72 376.1698L373.08 376.1698L580.08 376.1698L580.44 376.1698L580.44 376.5298L580.44 493.5298L580.44 493.8898L580.08 493.8898L373.08 493.8898L372.72 493.8898L372.72 493.5298z" stroke="none" fill="#000000" fill-rule="nonzero" /></g></g></svg>