<svg xmlns="http://www.w3.org/2000/svg" xmlns:xlink="http://www.w3.org/1999/xlink" id="body_22" preserveAspectRatio="xMinYMin meet" viewBox="0 0 793 1121"><defs><clipPath id="1"><path id="" clip-rule="evenodd" d="M0 841L0 -0.8900146L0 -0.8900146L595.276 -0.8900146L595.276 -0.8900146L595.276 841L595.276 841L0 841z" /></clipPath></defs><g transform="matrix(1.333333 0 0 1.333333 0 0)"><g clip-path="url(#1)"><g transform="matrix(0.5814545 0 0 0.5836686 90 71.11023)"><g transform="matrix(1 0 0 1 0 0)"><image x="0" y="0" xlink:href="img_53.png" width="440" height="338" /></g></g><g transform="matrix(0.5720648 0 0 0.5752326 90 432.6702)"><g transform="matrix(1 0 0 1 0 0)"><image x="0" y="0" xlink:href="img_54.png" width="494" height="344" /></g></g><path id="277" transform="matrix(1 0 0 -1 0 841)" d="M382.08 396.2098L589.08 396.2098L589.08 297.2098L382.08 297.2098z" stroke="none" fill="#FFFFFF" fill-rule="nonzero" /><path id="278" transform="matrix(1 0 0 -1 0 841)" d="M382.44 396.2098L382.08 396.2098L382.08 395.8498L589.08 395.8498L589.08 396.2098L588.72 396.2098L588.72 297.2098L589.08 297.2098L589.08 297.5698L382.08 297.5698L382.08 297.2098L382.44 297.2098zM381.72 297.2098L381.72 296.8498L382.08 296.8498L589.08 296.8498L589.44 296.8498L589.44 297.2098L589.44 396.2098L589.44 396.5698L589.08 396.5698L382.08 396.5698L381.72 396.5698L381.72 396.2098z" stroke="none" fill="#000000" fill-rule="nonzero" /></g></g></svg>