<svg xmlns="http://www.w3.org/2000/svg" xmlns:xlink="http://www.w3.org/1999/xlink" id="body_8" preserveAspectRatio="xMinYMin meet" viewBox="0 0 793 1121"><defs><clipPath id="1"><path id="" clip-rule="evenodd" d="M0 841L0 -0.8900146L0 -0.8900146L595.276 -0.8900146L595.276 -0.8900146L595.276 841L595.276 841L0 841z" /></clipPath><clipPath id="2"><path id="" clip-rule="evenodd" d="M595.2 679.6302L306.24 679.6302L306.24 679.6302L306.24 356.8302L306.24 356.8302L595.2 356.8302z" /></clipPath></defs><g transform="matrix(1.333333 0 0 1.333333 0 0)"><g clip-path="url(#1)"><g transform="matrix(0.6256901 0 0 0.6262588 90 385.8702)"><g transform="matrix(1 0 0 1 0 0)"><image x="0" y="0" xlink:href="img_19.png" width="355" height="425" /></g></g><path id="394" transform="matrix(1 0 0 -1 0 841)" d="M310.08 480.3298L595.2 480.3298L595.2 165.3298L310.08 165.3298z" stroke="none" fill="#FFFFFF" fill-rule="nonzero" /><g clip-path="url(#2)"><path id="395" transform="matrix(1 0 0 -1 0 841)" d="M310.44 480.3298L310.08 480.3298L310.08 479.9698L625.08 479.9698L625.08 480.3298L624.72 480.3298L624.72 165.3298L625.08 165.3298L625.08 165.6898L310.08 165.6898L310.08 165.3298L310.44 165.3298zM309.72 165.3298L309.72 164.9698L310.08 164.9698L625.08 164.9698L625.44 164.9698L625.44 165.3298L625.44 480.3298L625.44 480.6898L625.08 480.6898L310.08 480.6898L309.72 480.6898L309.72 480.3298z" stroke="none" fill="#000000" fill-rule="nonzero" /></g></g></g></svg>