<svg xmlns="http://www.w3.org/2000/svg" xmlns:xlink="http://www.w3.org/1999/xlink" id="body_16" preserveAspectRatio="xMinYMin meet" viewBox="0 0 793 1121"><defs><clipPath id="1"><path id="" clip-rule="evenodd" d="M0 841L0 -0.8900146L0 -0.8900146L595.276 -0.8900146L595.276 -0.8900146L595.276 841L595.276 841L0 841z" /></clipPath><clipPath id="2"><path id="" clip-rule="evenodd" d="M595.2 462.1902L333.24 462.1902L333.24 462.1902L333.24 175.3902L333.24 175.3902L595.2 175.3902z" /></clipPath></defs><g transform="matrix(1.333333 0 0 1.333333 0 0)"><g clip-path="url(#1)"><g transform="matrix(0.6204511 0 0 0.6194851 90 185.2302)"><g transform="matrix(1 0 0 1 0 0)"><image x="0" y="0" xlink:href="img_38.png" width="399" height="505" /></g></g><path id="188" transform="matrix(1 0 0 -1 0 841)" d="M337.08 661.7698L595.2 661.7698L595.2 382.7698L337.08 382.7698z" stroke="none" fill="#FFFFFF" fill-rule="nonzero" /><g clip-path="url(#2)"><path id="189" transform="matrix(1 0 0 -1 0 841)" d="M337.44 661.7698L337.08 661.7698L337.08 661.4098L670.08 661.4098L670.08 661.7698L669.72 661.7698L669.72 382.7698L670.08 382.7698L670.08 383.1298L337.08 383.1298L337.08 382.7698L337.44 382.7698zM336.72 382.7698L336.72 382.4098L337.08 382.4098L670.08 382.4098L670.44 382.4098L670.44 382.7698L670.44 661.7698L670.44 662.1298L670.08 662.1298L337.08 662.1298L336.72 662.1298L336.72 661.7698z" stroke="none" fill="#000000" fill-rule="nonzero" /></g></g></g></svg>