<svg xmlns="http://www.w3.org/2000/svg" xmlns:xlink="http://www.w3.org/1999/xlink" id="body_1" preserveAspectRatio="xMinYMin meet" viewBox="0 0 793 1121"><defs><clipPath id="1"><path id="" clip-rule="evenodd" d="M0 841L0 -0.8900146L0 -0.8900146L595.276 -0.8900146L595.276 -0.8900146L595.276 841L595.276 841L0 841z" /></clipPath><clipPath id="2"><path id="" clip-rule="evenodd" d="M595.2 665.5902L333.24 665.5902L333.24 665.5902L333.24 468.7902L333.24 468.7902L595.2 468.7902z" /></clipPath></defs><g transform="matrix(1.333333 0 0 1.333333 0 0)"><g clip-path="url(#1)"><g transform="matrix(0.5668633 0 0 0.5668572 90 502.9902)"><g transform="matrix(1 0 0 1 0 0)"><image x="0" y="0" xlink:href="img_01.png" width="373" height="315" /></g></g><path id="659" transform="matrix(1 0 0 -1 0 841)" d="M337.08 368.3698L595.2 368.3698L595.2 179.3698L337.08 179.3698z" stroke="none" fill="#FFFFFF" fill-rule="nonzero" /><g clip-path="url(#2)"><path id="660" transform="matrix(1 0 0 -1 0 841)" d="M337.44 368.3698L337.08 368.3698L337.08 368.0098L598.08 368.0098L598.08 368.3698L597.72 368.3698L597.72 179.3698L598.08 179.3698L598.08 179.7298L337.08 179.7298L337.08 179.3698L337.44 179.3698zM336.72 179.3698L336.72 179.0098L337.08 179.0098L598.08 179.0098L598.44 179.0098L598.44 179.3698L598.44 368.3698L598.44 368.7298L598.08 368.7298L337.08 368.7298L336.72 368.7298L336.72 368.3698z" stroke="none" fill="#000000" fill-rule="nonzero" /></g></g></g></svg>