<svg xmlns="http://www.w3.org/2000/svg" xmlns:xlink="http://www.w3.org/1999/xlink" id="body_42" preserveAspectRatio="xMinYMin meet" viewBox="0 0 793 1121"><defs><clipPath id="1"><path id="" clip-rule="evenodd" d="M0 841L0 -0.8900146L0 -0.8900146L595.276 -0.8900146L595.276 -0.8900146L595.276 841L595.276 841L0 841z" /></clipPath></defs><g transform="matrix(1.333333 0 0 1.333333 0 0)"><g clip-path="url(#1)"><g transform="matrix(0.6277524 0 0 0.6287838 95.04 178.7502)"><g transform="matrix(1 0 0 1 0 0)"><image x="0" y="0" xlink:href="img_104.png" width="307" height="296" /></g></g><g transform="matrix(0.5984365 0 0 0.6007454 316.44 171.4302)"><g transform="matrix(1 0 0 1 0 0)"><image x="0" y="0" xlink:href="img_105.png" width="307" height="322" /></g></g><g transform="matrix(0.6951604 0 0 0.6953474 90 479.1102)"><g transform="matrix(1 0 0 1 0 0)"><image x="0" y="0" xlink:href="img_106.png" width="343" height="331" /></g></g><path id="279" transform="matrix(1 0 0 -1 0 841)" d="M355.08 329.9698L562.08 329.9698L562.08 230.9698L355.08 230.9698z" stroke="none" fill="#FFFFFF" fill-rule="nonzero" /><path id="280" transform="matrix(1 0 0 -1 0 841)" d="M355.44 329.9698L355.08 329.9698L355.08 329.6098L562.08 329.6098L562.08 329.9698L561.72 329.9698L561.72 230.9698L562.08 230.9698L562.08 231.3298L355.08 231.3298L355.08 230.9698L355.44 230.9698zM354.72 230.9698L354.72 230.6098L355.08 230.6098L562.08 230.6098L562.44 230.6098L562.44 230.9698L562.44 329.9698L562.44 330.3298L562.08 330.3298L355.08 330.3298L354.72 330.3298L354.72 329.9698z" stroke="none" fill="#000000" fill-rule="nonzero" /></g></g></svg>