<svg xmlns="http://www.w3.org/2000/svg" xmlns:xlink="http://www.w3.org/1999/xlink" id="body_14" preserveAspectRatio="xMinYMin meet" viewBox="0 0 793 1121"><defs><clipPath id="1"><path id="" clip-rule="evenodd" d="M0 841L0 -0.8900146L0 -0.8900146L595.276 -0.8900146L595.276 -0.8900146L595.276 841L595.276 841L0 841z" /></clipPath><clipPath id="2"><path id="" clip-rule="evenodd" d="M595.2 628.2702L324.24 628.2702L324.24 628.2702L324.24 368.4702L324.24 368.4702L595.2 368.4702z" /></clipPath></defs><g transform="matrix(1.333333 0 0 1.333333 0 0)"><g clip-path="url(#1)"><g transform="matrix(0.6426446 0 0 0.6414254 90 402.5502)"><g transform="matrix(1 0 0 1 0 0)"><image x="0" y="0" xlink:href="img_34.png" width="363" height="449" /></g></g><path id="495" transform="matrix(1 0 0 -1 0 841)" d="M328.08 468.6898L595.2 468.6898L595.2 216.6898L328.08 216.6898z" stroke="none" fill="#FFFFFF" fill-rule="nonzero" /><g clip-path="url(#2)"><path id="496" transform="matrix(1 0 0 -1 0 841)" d="M328.44 468.6898L328.08 468.6898L328.08 468.3298L652.08 468.3298L652.08 468.6898L651.72 468.6898L651.72 216.6898L652.08 216.6898L652.08 217.0498L328.08 217.0498L328.08 216.6898L328.44 216.6898zM327.72 216.6898L327.72 216.3298L328.08 216.3298L652.08 216.3298L652.44 216.3298L652.44 216.6898L652.44 468.6898L652.44 469.0498L652.08 469.0498L328.08 469.0498L327.72 469.0498L327.72 468.6898z" stroke="none" fill="#000000" fill-rule="nonzero" /></g></g></g></svg>