<svg xmlns="http://www.w3.org/2000/svg" xmlns:xlink="http://www.w3.org/1999/xlink" id="body_44" preserveAspectRatio="xMinYMin meet" viewBox="0 0 793 1121"><defs><clipPath id="1"><path id="" clip-rule="evenodd" d="M0 841L0 -0.8900146L0 -0.8900146L595.276 -0.8900146L595.276 -0.8900146L595.276 841L595.276 841L0 841z" /></clipPath></defs><g transform="matrix(1.333333 0 0 1.333333 0 0)"><g clip-path="url(#1)"><g transform="matrix(0.5092593 0 0 0.5108148 250.56 71.11017)"><g transform="matrix(1 0 0 1 0 0)"><image x="0" y="0" xlink:href="img_110.png" width="324" height="405" /></g></g><g transform="matrix(0.607411 0 0 0.6083721 90 475.7502)"><g transform="matrix(1 0 0 1 0 0)"><image x="0" y="0" xlink:href="img_111.png" width="421" height="344" /></g></g><path id="254" transform="matrix(1 0 0 -1 0 841)" d="M355.08 359.6098L562.08 359.6098L562.08 233.6098L355.08 233.6098z" stroke="none" fill="#FFFFFF" fill-rule="nonzero" /><path id="255" transform="matrix(1 0 0 -1 0 841)" d="M355.44 359.6098L355.08 359.6098L355.08 359.2498L562.08 359.2498L562.08 359.6098L561.72 359.6098L561.72 233.6098L562.08 233.6098L562.08 233.9698L355.08 233.9698L355.08 233.6098L355.44 233.6098zM354.72 233.6098L354.72 233.2498L355.08 233.2498L562.08 233.2498L562.44 233.2498L562.44 233.6098L562.44 359.6098L562.44 359.9698L562.08 359.9698L355.08 359.9698L354.72 359.9698L354.72 359.6098z" stroke="none" fill="#000000" fill-rule="nonzero" /></g></g></svg>