<svg xmlns="http://www.w3.org/2000/svg" xmlns:xlink="http://www.w3.org/1999/xlink" id="body_18" preserveAspectRatio="xMinYMin meet" viewBox="0 0 793 1121"><defs><clipPath id="1"><path id="" clip-rule="evenodd" d="M0 841L0 -0.8900146L0 -0.8900146L595.276 -0.8900146L595.276 -0.8900146L595.276 841L595.276 841L0 841z" /></clipPath></defs><g transform="matrix(1.333333 0 0 1.333333 0 0)"><g clip-path="url(#1)"><g transform="matrix(0.5814815 0 0 0.5827889 203.4 71.11023)"><g transform="matrix(1 0 0 1 0 0)"><image x="0" y="0" xlink:href="img_42.png" width="324" height="251" /></g></g><g transform="matrix(0.6301045 0 0 0.632126 207.24 334.3902)"><g transform="matrix(1 0 0 1 0 0)"><image x="0" y="0" xlink:href="img_43.png" width="287" height="254" /></g></g><path id="317" transform="matrix(1 0 0 -1 0 841)" d="M337.08 187.6498L553.08 187.6498L553.08 61.6498L337.08 61.6498z" stroke="none" fill="#FFFFFF" fill-rule="nonzero" /><path id="318" transform="matrix(1 0 0 -1 0 841)" d="M337.44 187.6498L337.08 187.6498L337.08 187.2898L553.08 187.2898L553.08 187.6498L552.72 187.6498L552.72 61.6498L553.08 61.6498L553.08 62.0098L337.08 62.0098L337.08 61.6498L337.44 61.6498zM336.72 61.6498L336.72 61.2898L337.08 61.2898L553.08 61.2898L553.44 61.2898L553.44 61.6498L553.44 187.6498L553.44 188.0098L553.08 188.0098L337.08 188.0098L336.72 188.0098L336.72 187.6498z" stroke="none" fill="#000000" fill-rule="nonzero" /></g></g></svg>