<svg xmlns="http://www.w3.org/2000/svg" xmlns:xlink="http://www.w3.org/1999/xlink" id="body_45" preserveAspectRatio="xMinYMin meet" viewBox="0 0 793 1121"><defs><clipPath id="1"><path id="" clip-rule="evenodd" d="M0 841L0 -0.8900146L0 -0.8900146L595.276 -0.8900146L595.276 -0.8900146L595.276 841L595.276 841L0 841z" /></clipPath><clipPath id="2"><path id="" clip-rule="evenodd" d="M417.84 249.5502L404.64 249.5502L404.64 249.5502L404.64 242.3502L404.64 242.3502L417.84 242.3502z" /></clipPath></defs><g transform="matrix(1.333333 0 0 1.333333 0 0)"><g clip-path="url(#1)"><g transform="matrix(0.5398816 0 0 0.5398458 90 252.1902)"><g transform="matrix(1 0 0 1 0 0)"><image x="0" y="0" xlink:href="img_113.png" width="507" height="389" /></g></g><path id="598" transform="matrix(1 0 0 -1 0 841)" d="M373.08 602.7298L571.08 602.7298L571.08 422.7298L373.08 422.7298z" stroke="none" fill="#FFFFFF" fill-rule="nonzero" /><path id="599" transform="matrix(1 0 0 -1 0 841)" d="M373.44 602.7298L373.08 602.7298L373.08 602.3698L571.08 602.3698L571.08 602.7298L570.72 602.7298L570.72 422.7298L571.08 422.7298L571.08 423.0898L373.08 423.0898L373.08 422.7298L373.44 422.7298zM372.72 422.7298L372.72 422.3698L373.08 422.3698L571.08 422.3698L571.44 422.3698L571.44 422.7298L571.44 602.7298L571.44 603.0898L571.08 603.0898L373.08 603.0898L372.72 603.0898L372.72 602.7298z" stroke="none" fill="#000000" fill-rule="nonzero" /><g clip-path="url(#2)"></g></g></g></svg>