<svg xmlns="http://www.w3.org/2000/svg" xmlns:xlink="http://www.w3.org/1999/xlink" id="body_2" preserveAspectRatio="xMinYMin meet" viewBox="0 0 793 1121"><defs><clipPath id="1"><path id="" clip-rule="evenodd" d="M0 841L0 -0.8900146L0 -0.8900146L595.276 -0.8900146L595.276 -0.8900146L595.276 841L595.276 841L0 841z" /></clipPath></defs><g transform="matrix(1.333333 0 0 1.333333 0 0)"><g clip-path="url(#1)"><g transform="matrix(0.7651485 0 0 0.7637795 90 185.2302)"><g transform="matrix(1 0 0 1 0 0)"><image x="0" y="0" xlink:href="img_03.png" width="606" height="381" /></g></g><path id="421" transform="matrix(1 0 0 -1 0 841)" d="M211.08 389.1298L499.08 389.1298L499.08 308.1298L211.08 308.1298z" stroke="none" fill="#FFFFFF" fill-rule="nonzero" /><path id="422" transform="matrix(1 0 0 -1 0 841)" d="M211.44 389.1298L211.08 389.1298L211.08 388.7698L499.08 388.7698L499.08 389.1298L498.72 389.1298L498.72 308.1298L499.08 308.1298L499.08 308.4898L211.08 308.4898L211.08 308.1298L211.44 308.1298zM210.72 308.1298L210.72 307.7698L211.08 307.7698L499.08 307.7698L499.44 307.7698L499.44 308.1298L499.44 389.1298L499.44 389.4898L499.08 389.4898L211.08 389.4898L210.72 389.4898L210.72 389.1298z" stroke="none" fill="#000000" fill-rule="nonzero" /></g></g></svg>