<svg xmlns="http://www.w3.org/2000/svg" xmlns:xlink="http://www.w3.org/1999/xlink" id="body_24" preserveAspectRatio="xMinYMin meet" viewBox="0 0 793 1121"><defs><clipPath id="1"><path id="" clip-rule="evenodd" d="M0 841L0 -0.8900146L0 -0.8900146L595.276 -0.8900146L595.276 -0.8900146L595.276 841L595.276 841L0 841z" /></clipPath></defs><g transform="matrix(1.333333 0 0 1.333333 0 0)"><g clip-path="url(#1)"><g transform="matrix(0.6225882 0 0 0.6224561 90 168.5502)"><g transform="matrix(1 0 0 1 0 0)"><image x="0" y="0" xlink:href="img_59.png" width="425" height="342" /></g></g><g transform="matrix(0.75 0 0 0.7498507 158.16 448.3902)"><g transform="matrix(1 0 0 1 0 0)"><image x="0" y="0" xlink:href="img_60.png" width="372" height="201" /></g></g><path id="381" transform="matrix(1 0 0 -1 0 841)" d="M355.08 671.2498L589.08 671.2498L589.08 527.2498L355.08 527.2498z" stroke="none" fill="#FFFFFF" fill-rule="nonzero" /><path id="382" transform="matrix(1 0 0 -1 0 841)" d="M355.44 671.2498L355.08 671.2498L355.08 670.8898L589.08 670.8898L589.08 671.2498L588.72 671.2498L588.72 527.2498L589.08 527.2498L589.08 527.6098L355.08 527.6098L355.08 527.2498L355.44 527.2498zM354.72 527.2498L354.72 526.8898L355.08 526.8898L589.08 526.8898L589.44 526.8898L589.44 527.2498L589.44 671.2498L589.44 671.6098L589.08 671.6098L355.08 671.6098L354.72 671.6098L354.72 671.2498z" stroke="none" fill="#000000" fill-rule="nonzero" /></g></g></svg>