<svg xmlns="http://www.w3.org/2000/svg" xmlns:xlink="http://www.w3.org/1999/xlink" id="body_21" preserveAspectRatio="xMinYMin meet" viewBox="0 0 793 1121"><defs><clipPath id="1"><path id="" clip-rule="evenodd" d="M0 841L0 -0.8900146L0 -0.8900146L595.276 -0.8900146L595.276 -0.8900146L595.276 841L595.276 841L0 841z" /></clipPath></defs><g transform="matrix(1.333333 0 0 1.333333 0 0)"><g clip-path="url(#1)"><g transform="matrix(0.641267 0 0 0.6429114 226.8 71.11023)"><g transform="matrix(1 0 0 1 0 0)"><image x="0" y="0" xlink:href="img_50.png" width="221" height="316" /></g></g><g transform="matrix(0.5590588 0 0 0.5578295 226.32 391.2702)"><g transform="matrix(1 0 0 1 0 0)"><image x="0" y="0" xlink:href="img_51.png" width="255" height="387" /></g></g><path id="127" transform="matrix(1 0 0 -1 0 841)" d="M346.08 188.6098L562.08 188.6098L562.08 53.6098L346.08 53.6098z" stroke="none" fill="#FFFFFF" fill-rule="nonzero" /><path id="128" transform="matrix(1 0 0 -1 0 841)" d="M346.44 188.6098L346.08 188.6098L346.08 188.2498L562.08 188.2498L562.08 188.6098L561.72 188.6098L561.72 53.6098L562.08 53.6098L562.08 53.9698L346.08 53.9698L346.08 53.6098L346.44 53.6098zM345.72 53.6098L345.72 53.2498L346.08 53.2498L562.08 53.2498L562.44 53.2498L562.44 53.6098L562.44 188.6098L562.44 188.9698L562.08 188.9698L346.08 188.9698L345.72 188.9698L345.72 188.6098z" stroke="none" fill="#000000" fill-rule="nonzero" /></g></g></svg>