<svg xmlns="http://www.w3.org/2000/svg" xmlns:xlink="http://www.w3.org/1999/xlink" id="body_46" preserveAspectRatio="xMinYMin meet" viewBox="0 0 793 1121"><defs><clipPath id="1"><path id="" clip-rule="evenodd" d="M0 841L0 -0.8900146L0 -0.8900146L595.276 -0.8900146L595.276 -0.8900146L595.276 841L595.276 841L0 841z" /></clipPath><clipPath id="2"><path id="" clip-rule="evenodd" d="M595.2 703.7502L369.24 703.7502L369.24 703.7502L369.24 497.9502L369.24 497.9502L595.2 497.9502z" /></clipPath></defs><g transform="matrix(1.333333 0 0 1.333333 0 0)"><g clip-path="url(#1)"><g transform="matrix(0.50625 0 0 0.5053476 216.6 71.11023)"><g transform="matrix(1 0 0 1 0 0)"><image x="0" y="0" xlink:href="img_115.png" width="320" height="374" /></g></g><g transform="matrix(0.54 0 0 0.5421429 90 524.8302)"><g transform="matrix(1 0 0 1 0 0)"><image x="0" y="0" xlink:href="img_116.png" width="524" height="336" /></g></g><path id="386" transform="matrix(1 0 0 -1 0 841)" d="M373.08 339.2098L595.2 339.2098L595.2 141.2098L373.08 141.2098z" stroke="none" fill="#FFFFFF" fill-rule="nonzero" /><g clip-path="url(#2)"><path id="387" transform="matrix(1 0 0 -1 0 841)" d="M373.44 339.2098L373.08 339.2098L373.08 338.8498L598.08 338.8498L598.08 339.2098L597.72 339.2098L597.72 141.2098L598.08 141.2098L598.08 141.5698L373.08 141.5698L373.08 141.2098L373.44 141.2098zM372.72 141.2098L372.72 140.8498L373.08 140.8498L598.08 140.8498L598.44 140.8498L598.44 141.2098L598.44 339.2098L598.44 339.5698L598.08 339.5698L373.08 339.5698L372.72 339.5698L372.72 339.2098z" stroke="none" fill="#000000" fill-rule="nonzero" /></g></g></g></svg>