<svg xmlns="http://www.w3.org/2000/svg" xmlns:xlink="http://www.w3.org/1999/xlink" id="body_3" preserveAspectRatio="xMinYMin meet" viewBox="0 0 793 1121"><defs><clipPath id="1"><path id="" clip-rule="evenodd" d="M0 841L0 -0.8900146L0 -0.8900146L595.276 -0.8900146L595.276 -0.8900146L595.276 841L595.276 841L0 841z" /></clipPath></defs><g transform="matrix(1.333333 0 0 1.333333 0 0)"><g clip-path="url(#1)"><g transform="matrix(0.5068583 0 0 0.508 174.24 71.11023)"><g transform="matrix(1 0 0 1 0 0)"><image x="0" y="0" xlink:href="img_05.png" width="487" height="300" /></g></g><g transform="matrix(0.5227559 0 0 0.519021 164.88 256.8702)"><g transform="matrix(1 0 0 1 0 0)"><image x="0" y="0" xlink:href="img_06.png" width="508" height="286" /></g></g><g transform="matrix(0.5304439 0 0 0.5324835 196.08 472.1502)"><g transform="matrix(1 0 0 1 0 0)"><image x="0" y="0" xlink:href="img_07.png" width="383" height="455" /></g></g></g></g></svg>