<svg xmlns="http://www.w3.org/2000/svg" xmlns:xlink="http://www.w3.org/1999/xlink" id="body_39" preserveAspectRatio="xMinYMin meet" viewBox="0 0 793 1121"><defs><clipPath id="1"><path id="" clip-rule="evenodd" d="M0 841L0 -0.8900146L0 -0.8900146L595.276 -0.8900146L595.276 -0.8900146L595.276 841L595.276 841L0 841z" /></clipPath><clipPath id="2"><path id="" clip-rule="evenodd" d="M595.2 223.0302L351.24 223.0302L351.24 223.0302L351.24 116.2302L351.24 116.2302L595.2 116.2302z" /></clipPath></defs><g transform="matrix(1.333333 0 0 1.333333 0 0)"><g clip-path="url(#1)"><g transform="matrix(0.4395205 0 0 0.4372519 90 118.2703)"><g transform="matrix(1 0 0 1 0 0)"><image x="0" y="0" xlink:href="img_96.png" width="584" height="393" /></g></g><g transform="matrix(0.6442644 0 0 0.6459375 146.52 323.5902)"><g transform="matrix(1 0 0 1 0 0)"><image x="0" y="0" xlink:href="img_97.png" width="469" height="512" /></g></g><path id="70" transform="matrix(1 0 0 -1 0 841)" d="M355.08 720.9298L595.2 720.9298L595.2 621.9298L355.08 621.9298z" stroke="none" fill="#FFFFFF" fill-rule="nonzero" /><g clip-path="url(#2)"><path id="71" transform="matrix(1 0 0 -1 0 841)" d="M355.44 720.9298L355.08 720.9298L355.08 720.5698L598.08 720.5698L598.08 720.9298L597.72 720.9298L597.72 621.9298L598.08 621.9298L598.08 622.2898L355.08 622.2898L355.08 621.9298L355.44 621.9298zM354.72 621.9298L354.72 621.5698L355.08 621.5698L598.08 621.5698L598.44 621.5698L598.44 621.9298L598.44 720.9298L598.44 721.2898L598.08 721.2898L355.08 721.2898L354.72 721.2898L354.72 720.9298z" stroke="none" fill="#000000" fill-rule="nonzero" /></g></g></g></svg>