<svg xmlns="http://www.w3.org/2000/svg" xmlns:xlink="http://www.w3.org/1999/xlink" id="body_6" preserveAspectRatio="xMinYMin meet" viewBox="0 0 793 1121"><defs><clipPath id="1"><path id="" clip-rule="evenodd" d="M0 841L0 -0.8900146L0 -0.8900146L595.276 -0.8900146L595.276 -0.8900146L595.276 841L595.276 841L0 841z" /></clipPath><clipPath id="2"><path id="" clip-rule="evenodd" d="M595.2 476.4702L369.24 476.4702L369.24 476.4702L369.24 126.6702L369.24 126.6702L595.2 126.6702z" /></clipPath></defs><g transform="matrix(1.333333 0 0 1.333333 0 0)"><g clip-path="url(#1)"><g transform="matrix(0.5714754 0 0 0.576 90 151.7502)"><g transform="matrix(1 0 0 1 0 0)"><image x="0" y="0" xlink:href="img_14.png" width="488" height="500" /></g></g><path id="104" transform="matrix(1 0 0 -1 0 841)" d="M373.08 710.4898L595.2 710.4898L595.2 368.4898L373.08 368.4898z" stroke="none" fill="#FFFFFF" fill-rule="nonzero" /><g clip-path="url(#2)"><path id="105" transform="matrix(1 0 0 -1 0 841)" d="M373.44 710.4898L373.08 710.4898L373.08 710.1298L652.08 710.1298L652.08 710.4898L651.72 710.4898L651.72 368.4898L652.08 368.4898L652.08 368.8498L373.08 368.8498L373.08 368.4898L373.44 368.4898zM372.72 368.4898L372.72 368.1298L373.08 368.1298L652.08 368.1298L652.44 368.1298L652.44 368.4898L652.44 710.4898L652.44 710.8498L652.08 710.8498L373.08 710.8498L372.72 710.8498L372.72 710.4898z" stroke="none" fill="#000000" fill-rule="nonzero" /></g></g></g></svg>