<svg xmlns="http://www.w3.org/2000/svg" xmlns:xlink="http://www.w3.org/1999/xlink" id="body_12" preserveAspectRatio="xMinYMin meet" viewBox="0 0 793 1121"><defs><clipPath id="1"><path id="" clip-rule="evenodd" d="M0 841L0 -0.8900146L0 -0.8900146L595.276 -0.8900146L595.276 -0.8900146L595.276 841L595.276 841L0 841z" /></clipPath><clipPath id="2"><path id="" clip-rule="evenodd" d="M595.2 669.7902L333.24 669.7902L333.24 669.7902L333.24 517.9902L333.24 517.9902L595.2 517.9902z" /></clipPath></defs><g transform="matrix(1.333333 0 0 1.333333 0 0)"><g clip-path="url(#1)"><g transform="matrix(0.5055319 0 0 0.5040587 190.68 154.6302)"><g transform="matrix(1 0 0 1 0 0)"><image x="0" y="0" xlink:href="img_28.png" width="423" height="409" /></g></g><g transform="matrix(0.5190393 0 0 0.5206588 90 525.0702)"><g transform="matrix(1 0 0 1 0 0)"><image x="0" y="0" xlink:href="img_29.png" width="458" height="425" /></g></g><path id="267" transform="matrix(1 0 0 -1 0 841)" d="M337.08 319.1698L595.2 319.1698L595.2 175.1698L337.08 175.1698z" stroke="none" fill="#FFFFFF" fill-rule="nonzero" /><g clip-path="url(#2)"><path id="268" transform="matrix(1 0 0 -1 0 841)" d="M337.44 319.1698L337.08 319.1698L337.08 318.8098L607.08 318.8098L607.08 319.1698L606.72 319.1698L606.72 175.1698L607.08 175.1698L607.08 175.5298L337.08 175.5298L337.08 175.1698L337.44 175.1698zM336.72 175.1698L336.72 174.8098L337.08 174.8098L607.08 174.8098L607.44 174.8098L607.44 175.1698L607.44 319.1698L607.44 319.5298L607.08 319.5298L337.08 319.5298L336.72 319.5298L336.72 319.1698z" stroke="none" fill="#000000" fill-rule="nonzero" /></g></g></g></svg>