<svg xmlns="http://www.w3.org/2000/svg" xmlns:xlink="http://www.w3.org/1999/xlink" id="body_26" preserveAspectRatio="xMinYMin meet" viewBox="0 0 793 1121"><defs><clipPath id="1"><path id="" clip-rule="evenodd" d="M0 841L0 -0.8900146L0 -0.8900146L595.276 -0.8900146L595.276 -0.8900146L595.276 841L595.276 841L0 841z" /></clipPath></defs><g transform="matrix(1.333333 0 0 1.333333 0 0)"><g clip-path="url(#1)"><g transform="matrix(0.7501652 0 0 0.7501075 90 168.5502)"><g transform="matrix(1 0 0 1 0 0)"><image x="0" y="0" xlink:href="img_64.png" width="545" height="279" /></g></g><path id="96" transform="matrix(1 0 0 -1 0 841)" d="M202.08 494.6098L445.08 494.6098L445.08 296.6098L202.08 296.6098z" stroke="none" fill="#FFFFFF" fill-rule="nonzero" /><path id="97" transform="matrix(1 0 0 -1 0 841)" d="M202.44 494.6098L202.08 494.6098L202.08 494.2498L445.08 494.2498L445.08 494.6098L444.72 494.6098L444.72 296.6098L445.08 296.6098L445.08 296.9698L202.08 296.9698L202.08 296.6098L202.44 296.6098zM201.72 296.6098L201.72 296.2498L202.08 296.2498L445.08 296.2498L445.44 296.2498L445.44 296.6098L445.44 494.6098L445.44 494.9698L445.08 494.9698L202.08 494.9698L201.72 494.9698L201.72 494.6098z" stroke="none" fill="#000000" fill-rule="nonzero" /></g></g></svg>