<svg xmlns="http://www.w3.org/2000/svg" xmlns:xlink="http://www.w3.org/1999/xlink" id="body_49" preserveAspectRatio="xMinYMin meet" viewBox="0 0 793 1121"><defs><clipPath id="1"><path id="" clip-rule="evenodd" d="M0 841L0 -0.8900146L0 -0.8900146L595.276 -0.8900146L595.276 -0.8900146L595.276 841L595.276 841L0 841z" /></clipPath><clipPath id="2"><path id="" clip-rule="evenodd" d="M584.04 840.9102L333.24 840.9102L333.24 840.9102L333.24 723.0702L333.24 723.0702L584.04 723.0702z" /></clipPath><clipPath id="3"><path id="" clip-rule="evenodd" d="M353.64 840.9102L344.64 840.9102L344.64 840.9102L344.64 827.5902L344.64 827.5902L353.64 827.5902z" /></clipPath><clipPath id="4"><path id="" clip-rule="evenodd" d="M359.76 840.9102L353.52 840.9102L353.52 840.9102L353.52 827.5902L353.52 827.5902L359.76 827.5902z" /></clipPath><clipPath id="5"><path id="" clip-rule="evenodd" d="M480.6 840.9102L359.64 840.9102L359.64 840.9102L359.64 827.5902L359.64 827.5902L480.6 827.5902z" /></clipPath><clipPath id="6"><path id="" clip-rule="evenodd" d="M486 840.9102L480.6 840.9102L480.6 840.9102L480.6 827.5902L480.6 827.5902L486 827.5902z" /></clipPath></defs><g transform="matrix(1.333333 0 0 1.333333 0 0)"><g clip-path="url(#1)"><g transform="matrix(0.465 0 0 0.4641649 90 385.8702)"><g transform="matrix(1 0 0 1 0 0)"><image x="0" y="0" xlink:href="img_124.png" width="408" height="485" /></g></g><path id="457" transform="matrix(1 0 0 -1 0 841)" d="M283.08 437.4898L580.08 437.4898L580.08 320.4898L283.08 320.4898z" stroke="none" fill="#FFFFFF" fill-rule="nonzero" /><path id="458" transform="matrix(1 0 0 -1 0 841)" d="M283.44 437.4898L283.08 437.4898L283.08 437.1298L580.08 437.1298L580.08 437.4898L579.72 437.4898L579.72 320.4898L580.08 320.4898L580.08 320.8498L283.08 320.8498L283.08 320.4898L283.44 320.4898zM282.72 320.4898L282.72 320.1298L283.08 320.1298L580.08 320.1298L580.44 320.1298L580.44 320.4898L580.44 437.4898L580.44 437.8498L580.08 437.8498L283.08 437.8498L282.72 437.8498L282.72 437.4898z" stroke="none" fill="#000000" fill-rule="nonzero" /><path id="617" transform="matrix(1 0 0 -1 0 841)" d="M337.08 114.0898L580.08 114.0898L580.08 0.08979797L337.08 0.08979797z" stroke="none" fill="#FFFFFF" fill-rule="nonzero" /><g clip-path="url(#2)"><path id="618" transform="matrix(1 0 0 -1 0 841)" d="M337.44 114.0898L337.08 114.0898L337.08 113.7298L580.08 113.7298L580.08 114.0898L579.72 114.0898L579.72 -47.9102L580.08 -47.9102L580.08 -47.5502L337.08 -47.5502L337.08 -47.9102L337.44 -47.9102zM336.72 -47.9102L336.72 -48.2702L337.08 -48.2702L580.08 -48.2702L580.44 -48.2702L580.44 -47.9102L580.44 114.0898L580.44 114.4498L580.08 114.4498L337.08 114.4498L336.72 114.4498L336.72 114.0898z" stroke="none" fill="#000000" fill-rule="nonzero" /></g><g clip-path="url(#3)"></g><g clip-path="url(#4)"></g><g clip-path="url(#5)"></g><g clip-path="url(#6)"></g></g></g></svg>