<svg xmlns="http://www.w3.org/2000/svg" xmlns:xlink="http://www.w3.org/1999/xlink" id="body_34" preserveAspectRatio="xMinYMin meet" viewBox="0 0 793 1121"><defs><clipPath id="1"><path id="" clip-rule="evenodd" d="M0 841L0 -0.8900146L0 -0.8900146L595.276 -0.8900146L595.276 -0.8900146L595.276 841L595.276 841L0 841z" /></clipPath></defs><g transform="matrix(1.333333 0 0 1.333333 0 0)"><g clip-path="url(#1)"><g transform="matrix(0.69024 0 0 0.6892771 90 252.0702)"><g transform="matrix(1 0 0 1 0 0)"><image x="0" y="0" xlink:href="img_83.png" width="125" height="332" /></g></g><path id="856" transform="matrix(1 0 0 -1 0 841)" d="M220.08 561.2098L490.08 561.2098L490.08 462.2098L220.08 462.2098z" stroke="none" fill="#FFFFFF" fill-rule="nonzero" /><path id="857" transform="matrix(1 0 0 -1 0 841)" d="M220.44 561.2098L220.08 561.2098L220.08 560.8498L490.08 560.8498L490.08 561.2098L489.72 561.2098L489.72 462.2098L490.08 462.2098L490.08 462.5698L220.08 462.5698L220.08 462.2098L220.44 462.2098zM219.72 462.2098L219.72 461.8498L220.08 461.8498L490.08 461.8498L490.44 461.8498L490.44 462.2098L490.44 561.2098L490.44 561.5698L490.08 561.5698L220.08 561.5698L219.72 561.5698L219.72 561.2098z" stroke="none" fill="#000000" fill-rule="nonzero" /></g></g></svg>