<svg xmlns="http://www.w3.org/2000/svg" xmlns:xlink="http://www.w3.org/1999/xlink" id="body_36" preserveAspectRatio="xMinYMin meet" viewBox="0 0 793 1121"><defs><clipPath id="1"><path id="" clip-rule="evenodd" d="M0 841L0 -0.8900146L0 -0.8900146L595.276 -0.8900146L595.276 -0.8900146L595.276 841L595.276 841L0 841z" /></clipPath></defs><g transform="matrix(1.333333 0 0 1.333333 0 0)"><g clip-path="url(#1)"><g transform="matrix(0.5630332 0 0 0.5656452 90 335.7102)"><g transform="matrix(1 0 0 1 0 0)"><image x="0" y="0" xlink:href="img_88.png" width="422" height="248" /></g></g><path id="562" transform="matrix(1 0 0 -1 0 841)" d="M328.08 503.4898L580.08 503.4898L580.08 404.4898L328.08 404.4898z" stroke="none" fill="#FFFFFF" fill-rule="nonzero" /><path id="563" transform="matrix(1 0 0 -1 0 841)" d="M328.44 503.4898L328.08 503.4898L328.08 503.1298L580.08 503.1298L580.08 503.4898L579.72 503.4898L579.72 404.4898L580.08 404.4898L580.08 404.8498L328.08 404.8498L328.08 404.4898L328.44 404.4898zM327.72 404.4898L327.72 404.1298L328.08 404.1298L580.08 404.1298L580.44 404.1298L580.44 404.4898L580.44 503.4898L580.44 503.8498L580.08 503.8498L328.08 503.8498L327.72 503.8498L327.72 503.4898z" stroke="none" fill="#000000" fill-rule="nonzero" /><path id="649" transform="matrix(1 0 0 -1 0 841)" d="M355.08 89.3698L589.08 89.3698L589.08 8.369797L355.08 8.369797z" stroke="none" fill="#FFFFFF" fill-rule="nonzero" /><path id="650" transform="matrix(1 0 0 -1 0 841)" d="M355.44 89.3698L355.08 89.3698L355.08 89.0098L589.08 89.0098L589.08 89.3698L588.72 89.3698L588.72 8.3698L589.08 8.3698L589.08 8.7298L355.08 8.7298L355.08 8.3698L355.44 8.3698zM354.72 8.3698L354.72 8.0098L355.08 8.0098L589.08 8.0098L589.44 8.0098L589.44 8.3698L589.44 89.3698L589.44 89.7298L589.08 89.7298L355.08 89.7298L354.72 89.7298L354.72 89.3698z" stroke="none" fill="#000000" fill-rule="nonzero" /></g></g></svg>