<svg xmlns="http://www.w3.org/2000/svg" xmlns:xlink="http://www.w3.org/1999/xlink" id="body_28" preserveAspectRatio="xMinYMin meet" viewBox="0 0 793 1121"><defs><clipPath id="1"><path id="" clip-rule="evenodd" d="M0 841L0 -0.8900146L0 -0.8900146L595.276 -0.8900146L595.276 -0.8900146L595.276 841L595.276 841L0 841z" /></clipPath><clipPath id="2"><path id="" clip-rule="evenodd" d="M575.04 840.9102L315.24 840.9102L315.24 840.9102L315.24 755.4702L315.24 755.4702L575.04 755.4702z" /></clipPath><clipPath id="3"><path id="" clip-rule="evenodd" d="M335.64 840.9102L326.64 840.9102L326.64 840.9102L326.64 832.2702L326.64 832.2702L335.64 832.2702z" /></clipPath><clipPath id="4"><path id="" clip-rule="evenodd" d="M341.76 840.9102L335.52 840.9102L335.52 840.9102L335.52 832.2702L335.52 832.2702L341.76 832.2702z" /></clipPath><clipPath id="5"><path id="" clip-rule="evenodd" d="M421.32 840.9102L341.64 840.9102L341.64 840.9102L341.64 832.2702L341.64 832.2702L421.32 832.2702z" /></clipPath><clipPath id="6"><path id="" clip-rule="evenodd" d="M426.72 840.9102L421.32 840.9102L421.32 840.9102L421.32 832.2702L421.32 832.2702L426.72 832.2702z" /></clipPath></defs><g transform="matrix(1.333333 0 0 1.333333 0 0)"><g clip-path="url(#1)"><g transform="matrix(0.6314151 0 0 0.6305085 163.8 271.7502)"><g transform="matrix(1 0 0 1 0 0)"><image x="0" y="0" xlink:href="img_68.png" width="424" height="295" /></g></g><path id="524" transform="matrix(1 0 0 -1 0 841)" d="M319.08 81.6898L571.08 81.6898L571.08 0.08979797L319.08 0.08979797z" stroke="none" fill="#FFFFFF" fill-rule="nonzero" /><g clip-path="url(#2)"><path id="525" transform="matrix(1 0 0 -1 0 841)" d="M319.44 81.6898L319.08 81.6898L319.08 81.3298L571.08 81.3298L571.08 81.6898L570.72 81.6898L570.72 -98.3102L571.08 -98.3102L571.08 -97.9502L319.08 -97.9502L319.08 -98.3102L319.44 -98.3102zM318.72 -98.3102L318.72 -98.6702L319.08 -98.6702L571.08 -98.6702L571.44 -98.6702L571.44 -98.3102L571.44 81.6898L571.44 82.0498L571.08 82.0498L319.08 82.0498L318.72 82.0498L318.72 81.6898z" stroke="none" fill="#000000" fill-rule="nonzero" /></g><g clip-path="url(#3)"></g><g clip-path="url(#4)"></g><g clip-path="url(#5)"></g><g clip-path="url(#6)"></g></g></g></svg>