<svg xmlns="http://www.w3.org/2000/svg" xmlns:xlink="http://www.w3.org/1999/xlink" id="body_1" preserveAspectRatio="xMinYMin meet" viewBox="0 0 793 1121"><defs><clipPath id="1"><path id="" clip-rule="evenodd" d="M0 841L0 -0.8900146L0 -0.8900146L595.276 -0.8900146L595.276 -0.8900146L595.276 841L595.276 841L0 841z" /></clipPath><clipPath id="2"><path id="" clip-rule="evenodd" d="M595.2 840.9102L320.16 840.9102L320.16 840.9102L320.16 708.3102L320.16 708.3102L595.2 708.3102z" /></clipPath><clipPath id="3"><path id="" clip-rule="evenodd" d="M346.56 840.9102L331.56 840.9102L331.56 840.9102L331.56 840.3102L331.56 840.3102L346.56 840.3102z" /></clipPath><clipPath id="4"><path id="" clip-rule="evenodd" d="M352.68 840.9102L346.44 840.9102L346.44 840.9102L346.44 840.3102L346.44 840.3102L352.68 840.3102z" /></clipPath><clipPath id="5"><path id="" clip-rule="evenodd" d="M454.2 840.9102L352.56 840.9102L352.56 840.9102L352.56 840.3102L352.56 840.3102L454.2 840.3102z" /></clipPath><clipPath id="6"><path id="" clip-rule="evenodd" d="M459.6 840.9102L454.2 840.9102L454.2 840.9102L454.2 840.3102L454.2 840.3102L459.6 840.3102z" /></clipPath></defs><g transform="matrix(1.333333 0 0 1.333333 0 0)"><g clip-path="url(#1)"><g transform="matrix(0.6227027 0 0 0.6231454 216.96 71.11023)"><g transform="matrix(1 0 0 1 0 0)"><image x="0" y="0" xlink:href="img_01.png" width="259" height="337" /></g></g><g transform="matrix(0.4943256 0 0 0.494902 138.24 398.1102)"><g transform="matrix(1 0 0 1 0 0)"><image x="0" y="0" xlink:href="img_02.png" width="645" height="306" /></g></g><path id="275" transform="matrix(1 0 0 -1 0 841)" d="M324 128.8498L594 128.8498L594 0.08979797L324 0.08979797z" stroke="none" fill="#FFFFFF" fill-rule="nonzero" /><g clip-path="url(#2)"><path id="276" transform="matrix(1 0 0 -1 0 841)" d="M324.36 128.8498L324 128.8498L324 128.4898L594 128.4898L594 128.8498L593.64 128.8498L593.64 -69.1502L594 -69.1502L594 -68.7902L324 -68.7902L324 -69.1502L324.36 -69.1502zM323.64 -69.1502L323.64 -69.5102L324 -69.5102L594 -69.5102L594.36 -69.5102L594.36 -69.1502L594.36 128.8498L594.36 129.2098L594 129.2098L324 129.2098L323.64 129.2098L323.64 128.8498z" stroke="none" fill="#000000" fill-rule="nonzero" /></g><g clip-path="url(#3)"></g><g clip-path="url(#4)"></g><g clip-path="url(#5)"></g><g clip-path="url(#6)"></g></g></g></svg>