<svg xmlns="http://www.w3.org/2000/svg" xmlns:xlink="http://www.w3.org/1999/xlink" id="body_6" preserveAspectRatio="xMinYMin meet" viewBox="0 0 793 1121"><defs><clipPath id="1"><path id="" clip-rule="evenodd" d="M0 841L0 -0.8900146L0 -0.8900146L595.276 -0.8900146L595.276 -0.8900146L595.276 841L595.276 841L0 841z" /></clipPath></defs><g transform="matrix(1.333333 0 0 1.333333 0 0)"><g clip-path="url(#1)"><g transform="matrix(0.7501734 0 0 0.7499313 167.88 71.11023)"><g transform="matrix(1 0 0 1 0 0)"><image x="0" y="0" xlink:href="img_15.png" width="346" height="437" /></g></g><path id="221" transform="matrix(1 0 0 -1 0 841)" d="M315 159.3298L522 159.3298L522 6.329803L315 6.329803z" stroke="none" fill="#FFFFFF" fill-rule="nonzero" /><path id="222" transform="matrix(1 0 0 -1 0 841)" d="M315.36 159.3298L315 159.3298L315 158.9698L522 158.9698L522 159.3298L521.64 159.3298L521.64 6.3298L522 6.3298L522 6.6898L315 6.6898L315 6.3298L315.36 6.3298zM314.64 6.3298L314.64 5.9698L315 5.9698L522 5.9698L522.36 5.9698L522.36 6.3298L522.36 159.3298L522.36 159.6898L522 159.6898L315 159.6898L314.64 159.6898L314.64 159.3298z" stroke="none" fill="#000000" fill-rule="nonzero" /></g></g></svg>