<svg xmlns="http://www.w3.org/2000/svg" xmlns:xlink="http://www.w3.org/1999/xlink" id="body_8" preserveAspectRatio="xMinYMin meet" viewBox="0 0 793 1121"><defs><clipPath id="1"><path id="" clip-rule="evenodd" d="M0 841L0 -0.8900146L0 -0.8900146L595.276 -0.8900146L595.276 -0.8900146L595.276 841L595.276 841L0 841z" /></clipPath></defs><g transform="matrix(1.333333 0 0 1.333333 0 0)"><g clip-path="url(#1)"><g transform="matrix(0.60675 0 0 0.6060577 90 268.8702)"><g transform="matrix(1 0 0 1 0 0)"><image x="0" y="0" xlink:href="img_20.png" width="320" height="416" /></g></g><path id="384" transform="matrix(1 0 0 -1 0 841)" d="M306 548.6098L522 548.6098L522 413.6098L306 413.6098z" stroke="none" fill="#FFFFFF" fill-rule="nonzero" /><path id="385" transform="matrix(1 0 0 -1 0 841)" d="M306.36 548.6098L306 548.6098L306 548.2498L522 548.2498L522 548.6098L521.64 548.6098L521.64 413.6098L522 413.6098L522 413.9698L306 413.9698L306 413.6098L306.36 413.6098zM305.64 413.6098L305.64 413.2498L306 413.2498L522 413.2498L522.36 413.2498L522.36 413.6098L522.36 548.6098L522.36 548.9698L522 548.9698L306 548.9698L305.64 548.9698L305.64 548.6098z" stroke="none" fill="#000000" fill-rule="nonzero" /></g></g></svg>