<svg xmlns="http://www.w3.org/2000/svg" xmlns:xlink="http://www.w3.org/1999/xlink" id="body_3" preserveAspectRatio="xMinYMin meet" viewBox="0 0 793 1121"><defs><clipPath id="1"><path id="" clip-rule="evenodd" d="M0 841L0 -0.8900146L0 -0.8900146L595.276 -0.8900146L595.276 -0.8900146L595.276 841L595.276 841L0 841z" /></clipPath><clipPath id="2"><path id="" clip-rule="evenodd" d="M579.96 840.9102L302.16 840.9102L302.16 840.9102L302.16 660.7902L302.16 660.7902L579.96 660.7902z" /></clipPath></defs><g transform="matrix(1.333333 0 0 1.333333 0 0)"><g clip-path="url(#1)"><g transform="matrix(0.24 0 0 0.24 247.44 154.6302)"><g transform="matrix(1 0 0 1 0 0)"><image x="0" y="0" xlink:href="img_07.png" width="418" height="449" /></g></g><g transform="matrix(0.24 0 0 0.24 247.44 262.5102)"><g transform="matrix(1 0 0 1 0 0)"><image x="0" y="0" xlink:href="img_08.png" width="418" height="448" /></g></g><path id="452" transform="matrix(1 0 0 -1 0 841)" d="M306 176.3698L576 176.3698L576 0.08979797L306 0.08979797z" stroke="none" fill="#FFFFFF" fill-rule="nonzero" /><g clip-path="url(#2)"><path id="453" transform="matrix(1 0 0 -1 0 841)" d="M306.36 176.3698L306 176.3698L306 176.0098L576 176.0098L576 176.3698L575.64 176.3698L575.64 -21.6302L576 -21.6302L576 -21.2702L306 -21.2702L306 -21.6302L306.36 -21.6302zM305.64 -21.6302L305.64 -21.9902L306 -21.9902L576 -21.9902L576.36 -21.9902L576.36 -21.6302L576.36 176.3698L576.36 176.7298L576 176.7298L306 176.7298L305.64 176.7298L305.64 176.3698z" stroke="none" fill="#000000" fill-rule="nonzero" /></g></g></g></svg>