<svg xmlns="http://www.w3.org/2000/svg" xmlns:xlink="http://www.w3.org/1999/xlink" id="body_9" preserveAspectRatio="xMinYMin meet" viewBox="0 0 793 1121"><defs><clipPath id="1"><path id="" clip-rule="evenodd" d="M0 841L0 -0.8900146L0 -0.8900146L595.276 -0.8900146L595.276 -0.8900146L595.276 841L595.276 841L0 841z" /></clipPath></defs><g transform="matrix(1.333333 0 0 1.333333 0 0)"><g clip-path="url(#1)"><g transform="matrix(0.6007122 0 0 0.6009549 90 235.3902)"><g transform="matrix(1 0 0 1 0 0)"><image x="0" y="0" xlink:href="img_22.png" width="337" height="377" /></g></g><path id="186" transform="matrix(1 0 0 -1 0 841)" d="M306 580.7698L531 580.7698L531 427.7698L306 427.7698z" stroke="none" fill="#FFFFFF" fill-rule="nonzero" /><path id="187" transform="matrix(1 0 0 -1 0 841)" d="M306.36 580.7698L306 580.7698L306 580.4098L531 580.4098L531 580.7698L530.64 580.7698L530.64 427.7698L531 427.7698L531 428.1298L306 428.1298L306 427.7698L306.36 427.7698zM305.64 427.7698L305.64 427.4098L306 427.4098L531 427.4098L531.36 427.4098L531.36 427.7698L531.36 580.7698L531.36 581.1298L531 581.1298L306 581.1298L305.64 581.1298L305.64 580.7698z" stroke="none" fill="#000000" fill-rule="nonzero" /></g></g></svg>