<svg xmlns="http://www.w3.org/2000/svg" xmlns:xlink="http://www.w3.org/1999/xlink" id="body_5" preserveAspectRatio="xMinYMin meet" viewBox="0 0 793 1121"><defs><clipPath id="1"><path id="" clip-rule="evenodd" d="M0 841L0 -0.8900146L0 -0.8900146L595.276 -0.8900146L595.276 -0.8900146L595.276 841L595.276 841L0 841z" /></clipPath></defs><g transform="matrix(1.333333 0 0 1.333333 0 0)"><g clip-path="url(#1)"><g transform="matrix(0.4994702 0 0 0.5011601 90 335.7102)"><g transform="matrix(1 0 0 1 0 0)"><image x="0" y="0" xlink:href="img_13.png" width="302" height="431" /></g></g><path id="259" transform="matrix(1 0 0 -1 0 841)" d="M279 481.4098L468 481.4098L468 373.4098L279 373.4098z" stroke="none" fill="#FFFFFF" fill-rule="nonzero" /><path id="260" transform="matrix(1 0 0 -1 0 841)" d="M279.36 481.4098L279 481.4098L279 481.0498L468 481.0498L468 481.4098L467.64 481.4098L467.64 373.4098L468 373.4098L468 373.7698L279 373.7698L279 373.4098L279.36 373.4098zM278.64 373.4098L278.64 373.0498L279 373.0498L468 373.0498L468.36 373.0498L468.36 373.4098L468.36 481.4098L468.36 481.7698L468 481.7698L279 481.7698L278.64 481.7698L278.64 481.4098z" stroke="none" fill="#000000" fill-rule="nonzero" /></g></g></svg>