<svg xmlns="http://www.w3.org/2000/svg" xmlns:xlink="http://www.w3.org/1999/xlink" id="body_8" preserveAspectRatio="xMinYMin meet" viewBox="0 0 793 1121"><defs><clipPath id="1"><path id="" clip-rule="evenodd" d="M0 841L0 -0.8900146L0 -0.8900146L595.276 -0.8900146L595.276 -0.8900146L595.276 841L595.276 841L0 841z" /></clipPath><clipPath id="2"><path id="" clip-rule="evenodd" d="M595.2 394.2702L396.24 394.2702L396.24 394.2702L396.24 251.4702L396.24 251.4702L595.2 251.4702z" /></clipPath></defs><g transform="matrix(1.333333 0 0 1.333333 0 0)"><g clip-path="url(#1)"><g transform="matrix(0.3705688 0 0 0.3704601 90 290.8302)"><g transform="matrix(1 0 0 1 0 0)"><image x="0" y="0" xlink:href="img_16.png" width="545" height="413" /></g></g><g transform="matrix(0.6708075 0 0 0.670678 291.96 285.5502)"><g transform="matrix(1 0 0 1 0 0)"><image x="0" y="0" xlink:href="img_17.png" width="161" height="236" /></g></g><g transform="matrix(0.6246876 0 0 0.6254769 177.72 527.3502)"><g transform="matrix(1 0 0 1 0 0)"><image x="0" y="0" xlink:href="img_18.png" width="384" height="325" /></g></g><path id="306" transform="matrix(1 0 0 -1 0 841)" d="M400.08 585.6898L595.2 585.6898L595.2 450.6898L400.08 450.6898z" stroke="none" fill="#FFFFFF" fill-rule="nonzero" /><g clip-path="url(#2)"><path id="307" transform="matrix(1 0 0 -1 0 841)" d="M400.44 585.6898L400.08 585.6898L400.08 585.3298L607.08 585.3298L607.08 585.6898L606.72 585.6898L606.72 450.6898L607.08 450.6898L607.08 451.0498L400.08 451.0498L400.08 450.6898L400.44 450.6898zM399.72 450.6898L399.72 450.3298L400.08 450.3298L607.08 450.3298L607.44 450.3298L607.44 450.6898L607.44 585.6898L607.44 586.0498L607.08 586.0498L400.08 586.0498L399.72 586.0498L399.72 585.6898z" stroke="none" fill="#000000" fill-rule="nonzero" /></g></g></g></svg>