<svg xmlns="http://www.w3.org/2000/svg" xmlns:xlink="http://www.w3.org/1999/xlink" id="body_1" preserveAspectRatio="xMinYMin meet" viewBox="0 0 793 1121"><defs><clipPath id="1"><path id="" clip-rule="evenodd" d="M0 841L0 -0.8900146L0 -0.8900146L595.276 -0.8900146L595.276 -0.8900146L595.276 841L595.276 841L0 841z" /></clipPath></defs><g transform="matrix(1.333333 0 0 1.333333 0 0)"><g clip-path="url(#1)"><g transform="matrix(0.4402636 0 0 0.4410638 164.04 71.11023)"><g transform="matrix(1 0 0 1 0 0)"><image x="0" y="0" xlink:href="img_01.png" width="607" height="376" /></g></g><path id="432" transform="matrix(1 0 0 -1 0 841)" d="M301.08 291.4498L535.08 291.4498L535.08 66.4498L301.08 66.4498z" stroke="none" fill="#FFFFFF" fill-rule="nonzero" /><path id="433" transform="matrix(1 0 0 -1 0 841)" d="M301.44 291.4498L301.08 291.4498L301.08 291.0898L535.08 291.0898L535.08 291.4498L534.72 291.4498L534.72 66.4498L535.08 66.4498L535.08 66.8098L301.08 66.8098L301.08 66.4498L301.44 66.4498zM300.72 66.4498L300.72 66.0898L301.08 66.0898L535.08 66.0898L535.44 66.0898L535.44 66.4498L535.44 291.4498L535.44 291.8098L535.08 291.8098L301.08 291.8098L300.72 291.8098L300.72 291.4498z" stroke="none" fill="#000000" fill-rule="nonzero" /></g></g></svg>