<svg xmlns="http://www.w3.org/2000/svg" xmlns:xlink="http://www.w3.org/1999/xlink" id="body_4" preserveAspectRatio="xMinYMin meet" viewBox="0 0 793 1121"><defs><clipPath id="1"><path id="" clip-rule="evenodd" d="M0 841L0 -0.8900146L0 -0.8900146L595.276 -0.8900146L595.276 -0.8900146L595.276 841L595.276 841L0 841z" /></clipPath></defs><g transform="matrix(1.333333 0 0 1.333333 0 0)"><g clip-path="url(#1)"><g transform="matrix(0.6652235 0 0 0.6650527 90 118.3902)"><g transform="matrix(1 0 0 1 0 0)"><image x="0" y="0" xlink:href="img_08.png" width="425" height="380" /></g></g><path id="14" transform="matrix(1 0 0 -1 0 841)" d="M373.08 743.9698L544.08 743.9698L544.08 500.9698L373.08 500.9698z" stroke="none" fill="#FFFFFF" fill-rule="nonzero" /><path id="15" transform="matrix(1 0 0 -1 0 841)" d="M373.44 743.9698L373.08 743.9698L373.08 743.6098L544.08 743.6098L544.08 743.9698L543.72 743.9698L543.72 500.9698L544.08 500.9698L544.08 501.3298L373.08 501.3298L373.08 500.9698L373.44 500.9698zM372.72 500.9698L372.72 500.6098L373.08 500.6098L544.08 500.6098L544.44 500.6098L544.44 500.9698L544.44 743.9698L544.44 744.3298L544.08 744.3298L373.08 744.3298L372.72 744.3298L372.72 743.9698z" stroke="none" fill="#000000" fill-rule="nonzero" /></g></g></svg>