<svg xmlns="http://www.w3.org/2000/svg" xmlns:xlink="http://www.w3.org/1999/xlink" id="body_4" preserveAspectRatio="xMinYMin meet" viewBox="0 0 793 1121"><defs><clipPath id="1"><path id="" clip-rule="evenodd" d="M0 841L0 -0.8900146L0 -0.8900146L595.276 -0.8900146L595.276 -0.8900146L595.276 841L595.276 841L0 841z" /></clipPath><clipPath id="2"><path id="" clip-rule="evenodd" d="M595.2 840.9102L329.16 840.9102L329.16 840.9102L329.16 688.6302L329.16 688.6302L595.2 688.6302z" /></clipPath><clipPath id="3"><path id="" clip-rule="evenodd" d="M355.56 840.9102L340.56 840.9102L340.56 840.9102L340.56 834.7902L340.56 834.7902L355.56 834.7902z" /></clipPath><clipPath id="4"><path id="" clip-rule="evenodd" d="M359.52 840.9102L355.56 840.9102L355.56 840.9102L355.56 834.7902L355.56 834.7902L359.52 834.7902z" /></clipPath><clipPath id="5"><path id="" clip-rule="evenodd" d="M397.8 840.9102L359.52 840.9102L359.52 840.9102L359.52 834.7902L359.52 834.7902L397.8 834.7902z" /></clipPath><clipPath id="6"><path id="" clip-rule="evenodd" d="M403.32 840.9102L397.8 840.9102L397.8 840.9102L397.8 834.7902L397.8 834.7902L403.32 834.7902z" /></clipPath></defs><g transform="matrix(1.333333 0 0 1.333333 0 0)"><g clip-path="url(#1)"><g transform="matrix(0.5422838 0 0 0.5421782 140.88 221.5902)"><g transform="matrix(1 0 0 1 0 0)"><image x="0" y="0" xlink:href="img_11.png" width="578" height="303" /></g></g><path id="585" transform="matrix(1 0 0 -1 0 841)" d="M333 148.5298L594 148.5298L594 0.08979797L333 0.08979797z" stroke="none" fill="#FFFFFF" fill-rule="nonzero" /><g clip-path="url(#2)"><path id="586" transform="matrix(1 0 0 -1 0 841)" d="M333.36 148.5298L333 148.5298L333 148.1698L594 148.1698L594 148.5298L593.64 148.5298L593.64 -49.4702L594 -49.4702L594 -49.1102L333 -49.1102L333 -49.4702L333.36 -49.4702zM332.64 -49.4702L332.64 -49.8302L333 -49.8302L594 -49.8302L594.36 -49.8302L594.36 -49.4702L594.36 148.5298L594.36 148.8898L594 148.8898L333 148.8898L332.64 148.8898L332.64 148.5298z" stroke="none" fill="#000000" fill-rule="nonzero" /></g><g clip-path="url(#3)"></g><g clip-path="url(#4)"></g><g clip-path="url(#5)"></g><g clip-path="url(#6)"></g></g></g></svg>