<svg xmlns="http://www.w3.org/2000/svg" xmlns:xlink="http://www.w3.org/1999/xlink" id="body_10" preserveAspectRatio="xMinYMin meet" viewBox="0 0 793 1121"><defs><clipPath id="1"><path id="" clip-rule="evenodd" d="M0 841L0 -0.8900146L0 -0.8900146L595.276 -0.8900146L595.276 -0.8900146L595.276 841L595.276 841L0 841z" /></clipPath></defs><g transform="matrix(1.333333 0 0 1.333333 0 0)"><g clip-path="url(#1)"><g transform="matrix(0.5611765 0 0 0.5608308 230.88 71.11023)"><g transform="matrix(1 0 0 1 0 0)"><image x="0" y="0" xlink:href="img_27.png" width="238" height="337" /></g></g><g transform="matrix(0.5812918 0 0 0.5809859 90 591.6702)"><g transform="matrix(1 0 0 1 0 0)"><image x="0" y="0" xlink:href="img_28.png" width="449" height="284" /></g></g><path id="396" transform="matrix(1 0 0 -1 0 841)" d="M360 241.2898L558 241.2898L558 142.2898L360 142.2898z" stroke="none" fill="#FFFFFF" fill-rule="nonzero" /><path id="397" transform="matrix(1 0 0 -1 0 841)" d="M360.36 241.2898L360 241.2898L360 240.9298L558 240.9298L558 241.2898L557.64 241.2898L557.64 142.2898L558 142.2898L558 142.6498L360 142.6498L360 142.2898L360.36 142.2898zM359.64 142.2898L359.64 141.9298L360 141.9298L558 141.9298L558.36 141.9298L558.36 142.2898L558.36 241.2898L558.36 241.6498L558 241.6498L360 241.6498L359.64 241.6498L359.64 241.2898z" stroke="none" fill="#000000" fill-rule="nonzero" /></g></g></svg>