<svg xmlns="http://www.w3.org/2000/svg" xmlns:xlink="http://www.w3.org/1999/xlink" id="body_11" preserveAspectRatio="xMinYMin meet" viewBox="0 0 793 1121"><defs><clipPath id="1"><path id="" clip-rule="evenodd" d="M0 841L0 -0.8900146L0 -0.8900146L595.276 -0.8900146L595.276 -0.8900146L595.276 841L595.276 841L0 841z" /></clipPath></defs><g transform="matrix(1.333333 0 0 1.333333 0 0)"><g clip-path="url(#1)"><g transform="matrix(0.5595266 0 0 0.5625 250.32 154.6302)"><g transform="matrix(1 0 0 1 0 0)"><image x="0" y="0" xlink:href="img_30.png" width="169" height="336" /></g></g><g transform="matrix(0.5610323 0 0 0.5626229 90 574.8702)"><g transform="matrix(1 0 0 1 0 0)"><image x="0" y="0" xlink:href="img_31.png" width="465" height="244" /></g></g><path id="352" transform="matrix(1 0 0 -1 0 841)" d="M369 255.5698L558 255.5698L558 192.5698L369 192.5698z" stroke="none" fill="#FFFFFF" fill-rule="nonzero" /><path id="353" transform="matrix(1 0 0 -1 0 841)" d="M369.36 255.5698L369 255.5698L369 255.2098L558 255.2098L558 255.5698L557.64 255.5698L557.64 192.5698L558 192.5698L558 192.9298L369 192.9298L369 192.5698L369.36 192.5698zM368.64 192.5698L368.64 192.2098L369 192.2098L558 192.2098L558.36 192.2098L558.36 192.5698L558.36 255.5698L558.36 255.9298L558 255.9298L369 255.9298L368.64 255.9298L368.64 255.5698z" stroke="none" fill="#000000" fill-rule="nonzero" /></g></g></svg>