<svg xmlns="http://www.w3.org/2000/svg" xmlns:xlink="http://www.w3.org/1999/xlink" id="body_2" preserveAspectRatio="xMinYMin meet" viewBox="0 0 793 1121"><defs><clipPath id="1"><path id="" clip-rule="evenodd" d="M0 841L0 -0.8900146L0 -0.8900146L595.276 -0.8900146L595.276 -0.8900146L595.276 841L595.276 841L0 841z" /></clipPath><clipPath id="2"><path id="" clip-rule="evenodd" d="M595.2 840.9102L320.16 840.9102L320.16 840.9102L320.16 757.9902L320.16 757.9902L595.2 757.9902z" /></clipPath><clipPath id="3"><path id="" clip-rule="evenodd" d="M340.56 840.9102L331.56 840.9102L331.56 840.9102L331.56 834.7902L331.56 834.7902L340.56 834.7902z" /></clipPath><clipPath id="4"><path id="" clip-rule="evenodd" d="M346.68 840.9102L340.44 840.9102L340.44 840.9102L340.44 834.7902L340.44 834.7902L346.68 834.7902z" /></clipPath><clipPath id="5"><path id="" clip-rule="evenodd" d="M421.8 840.9102L346.56 840.9102L346.56 840.9102L346.56 834.7902L346.56 834.7902L421.8 834.7902z" /></clipPath><clipPath id="6"><path id="" clip-rule="evenodd" d="M427.32 840.9102L421.8 840.9102L421.8 840.9102L421.8 834.7902L421.8 834.7902L427.32 834.7902z" /></clipPath></defs><g transform="matrix(1.333333 0 0 1.333333 0 0)"><g clip-path="url(#1)"><g transform="matrix(0.5693366 0 0 0.5685517 90 221.5902)"><g transform="matrix(1 0 0 1 0 0)"><image x="0" y="0" xlink:href="img_04.png" width="407" height="290" /></g></g><g transform="matrix(0.24 0 0 0.24 126 386.5902)"><g transform="matrix(1 0 0 1 0 0)"><image x="0" y="0" xlink:href="img_05.png" width="641" height="537" /></g></g><path id="487" transform="matrix(1 0 0 -1 0 841)" d="M324 79.1698L595.2 79.1698L595.2 0.08979797L324 0.08979797z" stroke="none" fill="#FFFFFF" fill-rule="nonzero" /><g clip-path="url(#2)"><path id="488" transform="matrix(1 0 0 -1 0 841)" d="M324.36 79.1698L324 79.1698L324 78.8098L612 78.8098L612 79.1698L611.64 79.1698L611.64 -217.8302L612 -217.8302L612 -217.4702L324 -217.4702L324 -217.8302L324.36 -217.8302zM323.64 -217.8302L323.64 -218.1902L324 -218.1902L612 -218.1902L612.36 -218.1902L612.36 -217.8302L612.36 79.1698L612.36 79.5298L612 79.5298L324 79.5298L323.64 79.5298L323.64 79.1698z" stroke="none" fill="#000000" fill-rule="nonzero" /></g><g clip-path="url(#3)"></g><g clip-path="url(#4)"></g><g clip-path="url(#5)"></g><g clip-path="url(#6)"></g></g></g></svg>