<svg xmlns="http://www.w3.org/2000/svg" xmlns:xlink="http://www.w3.org/1999/xlink" id="body_15" preserveAspectRatio="xMinYMin meet" viewBox="0 0 793 1121"><defs><clipPath id="1"><path id="" clip-rule="evenodd" d="M0 841L0 -0.8900146L0 -0.8900146L595.276 -0.8900146L595.276 -0.8900146L595.276 841L595.276 841L0 841z" /></clipPath><clipPath id="2"><path id="" clip-rule="evenodd" d="M570.96 840.9102L374.16 840.9102L374.16 840.9102L374.16 774.0702L374.16 774.0702L570.96 774.0702z" /></clipPath><clipPath id="3"><path id="" clip-rule="evenodd" d="M394.56 840.9102L385.56 840.9102L385.56 840.9102L385.56 837.4302L385.56 837.4302L394.56 837.4302z" /></clipPath><clipPath id="4"><path id="" clip-rule="evenodd" d="M400.68 840.9102L394.44 840.9102L394.44 840.9102L394.44 837.4302L394.44 837.4302L400.68 837.4302z" /></clipPath><clipPath id="5"><path id="" clip-rule="evenodd" d="M477.12 840.9102L400.56 840.9102L400.56 840.9102L400.56 837.4302L400.56 837.4302L477.12 837.4302z" /></clipPath><clipPath id="6"><path id="" clip-rule="evenodd" d="M482.64 840.9102L477.12 840.9102L477.12 840.9102L477.12 837.4302L477.12 837.4302L482.64 837.4302z" /></clipPath></defs><g transform="matrix(1.333333 0 0 1.333333 0 0)"><g clip-path="url(#1)"><g transform="matrix(0.5672441 0 0 0.5701287 171.6 71.11023)"><g transform="matrix(1 0 0 1 0 0)"><image x="0" y="0" xlink:href="img_43.png" width="381" height="233" /></g></g><g transform="matrix(0.5970612 0 0 0.5976667 242.52 203.9502)"><g transform="matrix(1 0 0 1 0 0)"><image x="0" y="0" xlink:href="img_44.png" width="245" height="360" /></g></g><path id="379" transform="matrix(1 0 0 -1 0 841)" d="M378 63.0898L567 63.0898L567 0.08980179L378 0.08980179z" stroke="none" fill="#FFFFFF" fill-rule="nonzero" /><g clip-path="url(#2)"><path id="380" transform="matrix(1 0 0 -1 0 841)" d="M378.36 63.0898L378 63.0898L378 62.7298L567 62.7298L567 63.0898L566.64 63.0898L566.64 -35.9102L567 -35.9102L567 -35.5502L378 -35.5502L378 -35.9102L378.36 -35.9102zM377.64 -35.9102L377.64 -36.2702L378 -36.2702L567 -36.2702L567.36 -36.2702L567.36 -35.9102L567.36 63.0898L567.36 63.4498L567 63.4498L378 63.4498L377.64 63.4498L377.64 63.0898z" stroke="none" fill="#000000" fill-rule="nonzero" /></g><g clip-path="url(#3)"></g><g clip-path="url(#4)"></g><g clip-path="url(#5)"></g><g clip-path="url(#6)"></g></g></g></svg>