<svg xmlns="http://www.w3.org/2000/svg" xmlns:xlink="http://www.w3.org/1999/xlink" id="body_9" preserveAspectRatio="xMinYMin meet" viewBox="0 0 793 1121"><defs><clipPath id="1"><path id="" clip-rule="evenodd" d="M0 841L0 -0.8900146L0 -0.8900146L595.276 -0.8900146L595.276 -0.8900146L595.276 841L595.276 841L0 841z" /></clipPath><clipPath id="2"><path id="" clip-rule="evenodd" d="M595.2 357.0702L383.16 357.0702L383.16 357.0702L383.16 250.2702L383.16 250.2702L595.2 250.2702z" /></clipPath></defs><g transform="matrix(1.333333 0 0 1.333333 0 0)"><g clip-path="url(#1)"><g transform="matrix(0.5925748 0 0 0.5929412 90 235.3902)"><g transform="matrix(1 0 0 1 0 0)"><image x="0" y="0" xlink:href="img_25.png" width="501" height="306" /></g></g><path id="414" transform="matrix(1 0 0 -1 0 841)" d="M387 586.8898L595.2 586.8898L595.2 487.8898L387 487.8898z" stroke="none" fill="#FFFFFF" fill-rule="nonzero" /><g clip-path="url(#2)"><path id="415" transform="matrix(1 0 0 -1 0 841)" d="M387.36 586.8898L387 586.8898L387 586.5298L603 586.5298L603 586.8898L602.64 586.8898L602.64 487.8898L603 487.8898L603 488.2498L387 488.2498L387 487.8898L387.36 487.8898zM386.64 487.8898L386.64 487.5298L387 487.5298L603 487.5298L603.36 487.5298L603.36 487.8898L603.36 586.8898L603.36 587.2498L603 587.2498L387 587.2498L386.64 587.2498L386.64 586.8898z" stroke="none" fill="#000000" fill-rule="nonzero" /></g></g></g></svg>