<svg xmlns="http://www.w3.org/2000/svg" xmlns:xlink="http://www.w3.org/1999/xlink" id="body_1" preserveAspectRatio="xMinYMin meet" viewBox="0 0 793 1121"><defs><clipPath id="1"><path id="" clip-rule="evenodd" d="M0 841L0 -0.8900146L0 -0.8900146L595.276 -0.8900146L595.276 -0.8900146L595.276 841L595.276 841L0 841z" /></clipPath></defs><g transform="matrix(1.333333 0 0 1.333333 0 0)"><g clip-path="url(#1)"><g transform="matrix(0.24 0 0 0.24 90 291.1902)"><g transform="matrix(1 0 0 1 0 0)"><image x="0" y="0" xlink:href="img_01.png" width="1006" height="890" /></g></g><g transform="matrix(0.24 0 0 0.24 90 504.9102)"><g transform="matrix(1 0 0 1 0 0)"><image x="0" y="0" xlink:href="img_02.png" width="1006" height="222" /></g></g><path id="670" transform="matrix(1 0 0 -1 0 841)" d="M333 529.5298L585 529.5298L585 367.5298L333 367.5298z" stroke="none" fill="#FFFFFF" fill-rule="nonzero" /><path id="671" transform="matrix(1 0 0 -1 0 841)" d="M333.36 529.5298L333 529.5298L333 529.1698L585 529.1698L585 529.5298L584.64 529.5298L584.64 367.5298L585 367.5298L585 367.8898L333 367.8898L333 367.5298L333.36 367.5298zM332.64 367.5298L332.64 367.1698L333 367.1698L585 367.1698L585.36 367.1698L585.36 367.5298L585.36 529.5298L585.36 529.8898L585 529.8898L333 529.8898L332.64 529.8898L332.64 529.5298z" stroke="none" fill="#000000" fill-rule="nonzero" /></g></g></svg>