<svg xmlns="http://www.w3.org/2000/svg" xmlns:xlink="http://www.w3.org/1999/xlink" id="body_7" preserveAspectRatio="xMinYMin meet" viewBox="0 0 793 1121"><defs><clipPath id="1"><path id="" clip-rule="evenodd" d="M0 841L0 -0.8900146L0 -0.8900146L595.276 -0.8900146L595.276 -0.8900146L595.276 841L595.276 841L0 841z" /></clipPath></defs><g transform="matrix(1.333333 0 0 1.333333 0 0)"><g clip-path="url(#1)"><g transform="matrix(0.5664336 0 0 0.5678412 90 101.5902)"><g transform="matrix(1 0 0 1 0 0)"><image x="0" y="0" xlink:href="img_18.png" width="429" height="403" /></g></g><g transform="matrix(0.7498976 0 0 0.7499313 187.8 363.9102)"><g transform="matrix(1 0 0 1 0 0)"><image x="0" y="0" xlink:href="img_19.png" width="293" height="437" /></g></g><path id="75" transform="matrix(1 0 0 -1 0 841)" d="M342 762.3298L585 762.3298L585 537.3298L342 537.3298z" stroke="none" fill="#FFFFFF" fill-rule="nonzero" /><path id="76" transform="matrix(1 0 0 -1 0 841)" d="M342.36 762.3298L342 762.3298L342 761.9698L585 761.9698L585 762.3298L584.64 762.3298L584.64 537.3298L585 537.3298L585 537.6898L342 537.6898L342 537.3298L342.36 537.3298zM341.64 537.3298L341.64 536.9698L342 536.9698L585 536.9698L585.36 536.9698L585.36 537.3298L585.36 762.3298L585.36 762.6898L585 762.6898L342 762.6898L341.64 762.6898L341.64 762.3298z" stroke="none" fill="#000000" fill-rule="nonzero" /></g></g></svg>