<svg xmlns="http://www.w3.org/2000/svg" xmlns:xlink="http://www.w3.org/1999/xlink" id="body_6" preserveAspectRatio="xMinYMin meet" viewBox="0 0 793 1121"><defs><clipPath id="1"><path id="" clip-rule="evenodd" d="M0 841L0 -0.8900146L0 -0.8900146L595.276 -0.8900146L595.276 -0.8900146L595.276 841L595.276 841L0 841z" /></clipPath><clipPath id="2"><path id="" clip-rule="evenodd" d="M516.96 840.9102L284.16 840.9102L284.16 840.9102L284.16 760.8702L284.16 760.8702L516.96 760.8702z" /></clipPath></defs><g transform="matrix(1.333333 0 0 1.333333 0 0)"><g clip-path="url(#1)"><g transform="matrix(0.6495167 0 0 0.6483169 90 99.67023)"><g transform="matrix(1 0 0 1 0 0)"><image x="0" y="0" xlink:href="img_12.png" width="269" height="303" /></g></g><g transform="matrix(0.6846377 0 0 0.6859756 264.72 71.11023)"><g transform="matrix(1 0 0 1 0 0)"><image x="0" y="0" xlink:href="img_13.png" width="207" height="328" /></g></g><g transform="matrix(0.6779695 0 0 0.6833121 90 296.1102)"><g transform="matrix(1 0 0 1 0 0)"><image x="0" y="0" xlink:href="img_14.png" width="197" height="157" /></g></g><path id="370" transform="matrix(1 0 0 -1 0 841)" d="M288 76.2898L513 76.2898L513 0.0898056L288 0.0898056z" stroke="none" fill="#FFFFFF" fill-rule="nonzero" /><g clip-path="url(#2)"><path id="371" transform="matrix(1 0 0 -1 0 841)" d="M288.36 76.2898L288 76.2898L288 75.9298L513 75.9298L513 76.2898L512.64 76.2898L512.64 -22.7102L513 -22.7102L513 -22.3502L288 -22.3502L288 -22.7102L288.36 -22.7102zM287.64 -22.7102L287.64 -23.0702L288 -23.0702L513 -23.0702L513.36 -23.0702L513.36 -22.7102L513.36 76.2898L513.36 76.6498L513 76.6498L288 76.6498L287.64 76.6498L287.64 76.2898z" stroke="none" fill="#000000" fill-rule="nonzero" /></g></g></g></svg>