<svg xmlns="http://www.w3.org/2000/svg" xmlns:xlink="http://www.w3.org/1999/xlink" id="body_11" preserveAspectRatio="xMinYMin meet" viewBox="0 0 793 1121"><defs><clipPath id="1"><path id="" clip-rule="evenodd" d="M0 841L0 -0.8900146L0 -0.8900146L595.276 -0.8900146L595.276 -0.8900146L595.276 841L595.276 841L0 841z" /></clipPath></defs><g transform="matrix(1.333333 0 0 1.333333 0 0)"><g clip-path="url(#1)"><g transform="matrix(0.7501911 0 0 0.7496629 90 455.5902)"><g transform="matrix(1 0 0 1 0 0)"><image x="0" y="0" xlink:href="img_26.png" width="314" height="267" /></g></g><path id="579" transform="matrix(1 0 0 -1 0 841)" d="M369 364.6498L495 364.6498L495 265.6498L369 265.6498z" stroke="none" fill="#FFFFFF" fill-rule="nonzero" /><path id="580" transform="matrix(1 0 0 -1 0 841)" d="M369.36 364.6498L369 364.6498L369 364.2898L495 364.2898L495 364.6498L494.64 364.6498L494.64 265.6498L495 265.6498L495 266.0098L369 266.0098L369 265.6498L369.36 265.6498zM368.64 265.6498L368.64 265.2898L369 265.2898L495 265.2898L495.36 265.2898L495.36 265.6498L495.36 364.6498L495.36 365.0098L495 365.0098L369 365.0098L368.64 365.0098L368.64 364.6498z" stroke="none" fill="#000000" fill-rule="nonzero" /></g></g></svg>