<svg xmlns="http://www.w3.org/2000/svg" xmlns:xlink="http://www.w3.org/1999/xlink" id="body_17" preserveAspectRatio="xMinYMin meet" viewBox="0 0 793 1121"><defs><clipPath id="1"><path id="" clip-rule="evenodd" d="M0 841L0 -0.8900146L0 -0.8900146L595.276 -0.8900146L595.276 -0.8900146L595.276 841L595.276 841L0 841z" /></clipPath></defs><g transform="matrix(1.333333 0 0 1.333333 0 0)"><g clip-path="url(#1)"><g transform="matrix(0.75 0 0 0.75 228.6 171.4302)"><g transform="matrix(1 0 0 1 0 0)"><image x="0" y="0" xlink:href="img_41.png" width="184" height="276" /></g></g><path id="336" transform="matrix(1 0 0 -1 0 841)" d="M378 273.4498L522 273.4498L522 156.4498L378 156.4498z" stroke="none" fill="#FFFFFF" fill-rule="nonzero" /><path id="337" transform="matrix(1 0 0 -1 0 841)" d="M378.36 273.4498L378 273.4498L378 273.0898L522 273.0898L522 273.4498L521.64 273.4498L521.64 156.4498L522 156.4498L522 156.8098L378 156.8098L378 156.4498L378.36 156.4498zM377.64 156.4498L377.64 156.0898L378 156.0898L522 156.0898L522.36 156.0898L522.36 156.4498L522.36 273.4498L522.36 273.8098L522 273.8098L378 273.8098L377.64 273.8098L377.64 273.4498z" stroke="none" fill="#000000" fill-rule="nonzero" /></g></g></svg>