<svg xmlns="http://www.w3.org/2000/svg" xmlns:xlink="http://www.w3.org/1999/xlink" id="body_9" preserveAspectRatio="xMinYMin meet" viewBox="0 0 793 1121"><defs><clipPath id="1"><path id="" clip-rule="evenodd" d="M0 841L0 -0.8900146L0 -0.8900146L595.276 -0.8900146L595.276 -0.8900146L595.276 841L595.276 841L0 841z" /></clipPath><clipPath id="2"><path id="" clip-rule="evenodd" d="M552.96 840.9102L302.16 840.9102L302.16 840.9102L302.16 731.1102L302.16 731.1102L552.96 731.1102z" /></clipPath><clipPath id="3"><path id="" clip-rule="evenodd" d="M322.56 840.9102L313.56 840.9102L313.56 840.9102L313.56 835.6302L313.56 835.6302L322.56 835.6302z" /></clipPath><clipPath id="4"><path id="" clip-rule="evenodd" d="M328.68 840.9102L322.44 840.9102L322.44 840.9102L322.44 835.6302L322.44 835.6302L328.68 835.6302z" /></clipPath><clipPath id="5"><path id="" clip-rule="evenodd" d="M428.76 840.9102L328.56 840.9102L328.56 840.9102L328.56 835.6302L328.56 835.6302L428.76 835.6302z" /></clipPath><clipPath id="6"><path id="" clip-rule="evenodd" d="M434.28 840.9102L428.76 840.9102L428.76 840.9102L428.76 835.6302L428.76 835.6302L434.28 835.6302z" /></clipPath></defs><g transform="matrix(1.333333 0 0 1.333333 0 0)"><g clip-path="url(#1)"><g transform="matrix(0.7498885 0 0 0.75 196.8 71.11023)"><g transform="matrix(1 0 0 1 0 0)"><image x="0" y="0" xlink:href="img_21.png" width="269" height="304" /></g></g><path id="577" transform="matrix(1 0 0 -1 0 841)" d="M306 106.0498L549 106.0498L549 0.08979797L306 0.08979797z" stroke="none" fill="#FFFFFF" fill-rule="nonzero" /><g clip-path="url(#2)"><path id="578" transform="matrix(1 0 0 -1 0 841)" d="M306.36 106.0498L306 106.0498L306 105.6898L549 105.6898L549 106.0498L548.64 106.0498L548.64 -55.9502L549 -55.9502L549 -55.5902L306 -55.5902L306 -55.9502L306.36 -55.9502zM305.64 -55.9502L305.64 -56.3102L306 -56.3102L549 -56.3102L549.36 -56.3102L549.36 -55.9502L549.36 106.0498L549.36 106.4098L549 106.4098L306 106.4098L305.64 106.4098L305.64 106.0498z" stroke="none" fill="#000000" fill-rule="nonzero" /></g><g clip-path="url(#3)"></g><g clip-path="url(#4)"></g><g clip-path="url(#5)"></g><g clip-path="url(#6)"></g></g></g></svg>