<svg xmlns="http://www.w3.org/2000/svg" xmlns:xlink="http://www.w3.org/1999/xlink" id="body_2" preserveAspectRatio="xMinYMin meet" viewBox="0 0 793 1121"><defs><clipPath id="1"><path id="" clip-rule="evenodd" d="M0 841L0 -0.8900146L0 -0.8900146L595.276 -0.8900146L595.276 -0.8900146L595.276 841L595.276 841L0 841z" /></clipPath><clipPath id="2"><path id="" clip-rule="evenodd" d="M595.2 371.8302L347.16 371.8302L347.16 371.8302L347.16 130.0302L347.16 130.0302L595.2 130.0302z" /></clipPath></defs><g transform="matrix(1.333333 0 0 1.333333 0 0)"><g clip-path="url(#1)"><g transform="matrix(0.8083833 0 0 0.8135065 90 154.6302)"><g transform="matrix(1 0 0 1 0 0)"><image x="0" y="0" xlink:href="img_04.png" width="334" height="308" /></g></g><path id="34" transform="matrix(1 0 0 -1 0 841)" d="M351 707.1298L595.2 707.1298L595.2 473.1298L351 473.1298z" stroke="none" fill="#FFFFFF" fill-rule="nonzero" /><g clip-path="url(#2)"><path id="35" transform="matrix(1 0 0 -1 0 841)" d="M351.36 707.1298L351 707.1298L351 706.7698L702 706.7698L702 707.1298L701.64 707.1298L701.64 473.1298L702 473.1298L702 473.4898L351 473.4898L351 473.1298L351.36 473.1298zM350.64 473.1298L350.64 472.7698L351 472.7698L702 472.7698L702.36 472.7698L702.36 473.1298L702.36 707.1298L702.36 707.4898L702 707.4898L351 707.4898L350.64 707.4898L350.64 707.1298z" stroke="none" fill="#000000" fill-rule="nonzero" /></g></g></g></svg>