<svg xmlns="http://www.w3.org/2000/svg" xmlns:xlink="http://www.w3.org/1999/xlink" id="body_12" preserveAspectRatio="xMinYMin meet" viewBox="0 0 793 1121"><defs><clipPath id="1"><path id="" clip-rule="evenodd" d="M0 841L0 -0.8900146L0 -0.8900146L595.276 -0.8900146L595.276 -0.8900146L595.276 841L595.276 841L0 841z" /></clipPath></defs><g transform="matrix(1.333333 0 0 1.333333 0 0)"><g clip-path="url(#1)"><g transform="matrix(0.7501449 0 0 0.7498204 219.96 121.2702)"><g transform="matrix(1 0 0 1 0 0)"><image x="0" y="0" xlink:href="img_28.png" width="207" height="334" /></g></g><path id="372" transform="matrix(1 0 0 -1 0 841)" d="M324 200.2498L495 200.2498L495 38.2498L324 38.2498z" stroke="none" fill="#FFFFFF" fill-rule="nonzero" /><path id="373" transform="matrix(1 0 0 -1 0 841)" d="M324.36 200.2498L324 200.2498L324 199.8898L495 199.8898L495 200.2498L494.64 200.2498L494.64 38.2498L495 38.2498L495 38.6098L324 38.6098L324 38.2498L324.36 38.2498zM323.64 38.2498L323.64 37.8898L324 37.8898L495 37.8898L495.36 37.8898L495.36 38.2498L495.36 200.2498L495.36 200.6098L495 200.6098L324 200.6098L323.64 200.6098L323.64 200.2498z" stroke="none" fill="#000000" fill-rule="nonzero" /></g></g></svg>