<svg xmlns="http://www.w3.org/2000/svg" xmlns:xlink="http://www.w3.org/1999/xlink" id="body_18" preserveAspectRatio="xMinYMin meet" viewBox="0 0 793 1121"><defs><clipPath id="1"><path id="" clip-rule="evenodd" d="M0 841L0 -0.8900146L0 -0.8900146L595.276 -0.8900146L595.276 -0.8900146L595.276 841L595.276 841L0 841z" /></clipPath></defs><g transform="matrix(1.333333 0 0 1.333333 0 0)"><g clip-path="url(#1)"><g transform="matrix(0.75 0 0 0.7500918 90 71.11023)"><g transform="matrix(1 0 0 1 0 0)"><image x="0" y="0" xlink:href="img_43.png" width="364" height="327" /></g></g><g transform="matrix(0.7502703 0 0 0.7498013 110.52 419.7102)"><g transform="matrix(1 0 0 1 0 0)"><image x="0" y="0" xlink:href="img_44.png" width="222" height="302" /></g></g><g transform="matrix(0.7498917 0 0 0.749804 277.08 416.7102)"><g transform="matrix(1 0 0 1 0 0)"><image x="0" y="0" xlink:href="img_45.png" width="277" height="306" /></g></g></g></g></svg>