<svg xmlns="http://www.w3.org/2000/svg" xmlns:xlink="http://www.w3.org/1999/xlink" id="body_7" preserveAspectRatio="xMinYMin meet" viewBox="0 0 793 1121"><defs><clipPath id="1"><path id="" clip-rule="evenodd" d="M0 841L0 -0.8900146L0 -0.8900146L595.276 -0.8900146L595.276 -0.8900146L595.276 841L595.276 841L0 841z" /></clipPath></defs><g transform="matrix(1.333333 0 0 1.333333 0 0)"><g clip-path="url(#1)"><g transform="matrix(0.2446073 0 0 0.2443123 90 71.11023)"><g transform="matrix(1 0 0 1 0 0)"><image x="0" y="0" xlink:href="img_17.png" width="573" height="807" /></g></g><g transform="matrix(0.3018417 0 0 0.3029616 204.24 301.7502)"><g transform="matrix(1 0 0 1 0 0)"><image x="0" y="0" xlink:href="img_18.png" width="619" height="547" /></g></g><path id="166" transform="matrix(1 0 0 -1 0 841)" d="M274.08 209.9698L526.08 209.9698L526.08 128.9698L274.08 128.9698z" stroke="none" fill="#FFFFFF" fill-rule="nonzero" /><path id="167" transform="matrix(1 0 0 -1 0 841)" d="M274.44 209.9698L274.08 209.9698L274.08 209.6098L526.08 209.6098L526.08 209.9698L525.72 209.9698L525.72 128.9698L526.08 128.9698L526.08 129.3298L274.08 129.3298L274.08 128.9698L274.44 128.9698zM273.72 128.9698L273.72 128.6098L274.08 128.6098L526.08 128.6098L526.44 128.6098L526.44 128.9698L526.44 209.9698L526.44 210.3298L526.08 210.3298L274.08 210.3298L273.72 210.3298L273.72 209.9698z" stroke="none" fill="#000000" fill-rule="nonzero" /></g></g></svg>