<svg xmlns="http://www.w3.org/2000/svg" xmlns:xlink="http://www.w3.org/1999/xlink" id="body_9" preserveAspectRatio="xMinYMin meet" viewBox="0 0 793 1121"><defs><clipPath id="1"><path id="" clip-rule="evenodd" d="M0 841L0 -0.8900146L0 -0.8900146L595.276 -0.8900146L595.276 -0.8900146L595.276 841L595.276 841L0 841z" /></clipPath></defs><g transform="matrix(1.333333 0 0 1.333333 0 0)"><g clip-path="url(#1)"><g transform="matrix(0.5771962 0 0 0.5752578 90 235.3902)"><g transform="matrix(1 0 0 1 0 0)"><image x="0" y="0" xlink:href="img_23.png" width="321" height="485" /></g></g><path id="412" transform="matrix(1 0 0 -1 0 841)" d="M274.08 581.8498L535.08 581.8498L535.08 518.8498L274.08 518.8498z" stroke="none" fill="#FFFFFF" fill-rule="nonzero" /><path id="413" transform="matrix(1 0 0 -1 0 841)" d="M274.44 581.8498L274.08 581.8498L274.08 581.4898L535.08 581.4898L535.08 581.8498L534.72 581.8498L534.72 518.8498L535.08 518.8498L535.08 519.2098L274.08 519.2098L274.08 518.8498L274.44 518.8498zM273.72 518.8498L273.72 518.4898L274.08 518.4898L535.08 518.4898L535.44 518.4898L535.44 518.8498L535.44 581.8498L535.44 582.2098L535.08 582.2098L274.08 582.2098L273.72 582.2098L273.72 581.8498z" stroke="none" fill="#000000" fill-rule="nonzero" /></g></g></svg>