<svg xmlns="http://www.w3.org/2000/svg" xmlns:xlink="http://www.w3.org/1999/xlink" id="body_6" preserveAspectRatio="xMinYMin meet" viewBox="0 0 793 1121"><defs><clipPath id="1"><path id="" clip-rule="evenodd" d="M0 841L0 -0.8900146L0 -0.8900146L595.276 -0.8900146L595.276 -0.8900146L595.276 841L595.276 841L0 841z" /></clipPath></defs><g transform="matrix(1.333333 0 0 1.333333 0 0)"><g clip-path="url(#1)"><g transform="matrix(0.6096774 0 0 0.6090102 203.16 372.0702)"><g transform="matrix(1 0 0 1 0 0)"><image x="0" y="0" xlink:href="img_15.png" width="310" height="293" /></g></g><path id="446" transform="matrix(1 0 0 -1 0 841)" d="M256.08 129.0898L499.08 129.0898L499.08 48.0898L256.08 48.0898z" stroke="none" fill="#FFFFFF" fill-rule="nonzero" /><path id="447" transform="matrix(1 0 0 -1 0 841)" d="M256.44 129.0898L256.08 129.0898L256.08 128.7298L499.08 128.7298L499.08 129.0898L498.72 129.0898L498.72 48.0898L499.08 48.0898L499.08 48.4498L256.08 48.4498L256.08 48.0898L256.44 48.0898zM255.72 48.0898L255.72 47.7298L256.08 47.7298L499.08 47.7298L499.44 47.7298L499.44 48.0898L499.44 129.0898L499.44 129.4498L499.08 129.4498L256.08 129.4498L255.72 129.4498L255.72 129.0898z" stroke="none" fill="#000000" fill-rule="nonzero" /></g></g></svg>