<svg xmlns="http://www.w3.org/2000/svg" xmlns:xlink="http://www.w3.org/1999/xlink" id="body_1" preserveAspectRatio="xMinYMin meet" viewBox="0 0 793 1121"><defs><clipPath id="1"><path id="" clip-rule="evenodd" d="M0 841L0 -0.8900146L0 -0.8900146L595.276 -0.8900146L595.276 -0.8900146L595.276 841L595.276 841L0 841z" /></clipPath></defs><g transform="matrix(1.333333 0 0 1.333333 0 0)"><g clip-path="url(#1)"><g transform="matrix(0.5653974 0 0 0.5626667 144.72 154.7502)"><g transform="matrix(1 0 0 1 0 0)"><image x="0" y="0" xlink:href="img_01.png" width="541" height="180" /></g></g><path id="418" transform="matrix(1 0 0 -1 0 841)" d="M337.08 273.6898L508.08 273.6898L508.08 147.6898L337.08 147.6898z" stroke="none" fill="#FFFFFF" fill-rule="nonzero" /><path id="419" transform="matrix(1 0 0 -1 0 841)" d="M337.44 273.6898L337.08 273.6898L337.08 273.3298L508.08 273.3298L508.08 273.6898L507.72 273.6898L507.72 147.6898L508.08 147.6898L508.08 148.0498L337.08 148.0498L337.08 147.6898L337.44 147.6898zM336.72 147.6898L336.72 147.3298L337.08 147.3298L508.08 147.3298L508.44 147.3298L508.44 147.6898L508.44 273.6898L508.44 274.0498L508.08 274.0498L337.08 274.0498L336.72 274.0498L336.72 273.6898z" stroke="none" fill="#000000" fill-rule="nonzero" /></g></g></svg>