<svg xmlns="http://www.w3.org/2000/svg" xmlns:xlink="http://www.w3.org/1999/xlink" id="body_3" preserveAspectRatio="xMinYMin meet" viewBox="0 0 793 1121"><defs><clipPath id="1"><path id="" clip-rule="evenodd" d="M0 841L0 -0.8900146L0 -0.8900146L595.276 -0.8900146L595.276 -0.8900146L595.276 841L595.276 841L0 841z" /></clipPath></defs><g transform="matrix(1.333333 0 0 1.333333 0 0)"><g clip-path="url(#1)"><g transform="matrix(0.75 0 0 0.7500001 234 201.9102)"><g transform="matrix(1 0 0 1 0 0)"><image x="0" y="0" xlink:href="img_05.png" width="140" height="448" /></g></g><path id="395" transform="matrix(1 0 0 -1 0 841)" d="M355.08 566.4898L517.08 566.4898L517.08 440.4898L355.08 440.4898z" stroke="none" fill="#FFFFFF" fill-rule="nonzero" /><path id="396" transform="matrix(1 0 0 -1 0 841)" d="M355.44 566.4898L355.08 566.4898L355.08 566.1298L517.08 566.1298L517.08 566.4898L516.72 566.4898L516.72 440.4898L517.08 440.4898L517.08 440.8498L355.08 440.8498L355.08 440.4898L355.44 440.4898zM354.72 440.4898L354.72 440.1298L355.08 440.1298L517.08 440.1298L517.44 440.1298L517.44 440.4898L517.44 566.4898L517.44 566.8498L517.08 566.8498L355.08 566.8498L354.72 566.8498L354.72 566.4898z" stroke="none" fill="#000000" fill-rule="nonzero" /></g></g></svg>