<svg xmlns="http://www.w3.org/2000/svg" xmlns:xlink="http://www.w3.org/1999/xlink" id="body_11" preserveAspectRatio="xMinYMin meet" viewBox="0 0 793 1121"><defs><clipPath id="1"><path id="" clip-rule="evenodd" d="M0 841L0 -0.8900146L0 -0.8900146L595.276 -0.8900146L595.276 -0.8900146L595.276 841L595.276 841L0 841z" /></clipPath><clipPath id="2"><path id="" clip-rule="evenodd" d="M512.52 840.9102L324.72 840.9102L324.72 840.9102L324.72 797.8302L324.72 797.8302L512.52 797.8302z" /></clipPath><clipPath id="3"><path id="" clip-rule="evenodd" d="M345.24 840.9102L336.24 840.9102L336.24 840.9102L336.24 833.3502L336.24 833.3502L345.24 833.3502z" /></clipPath><clipPath id="4"><path id="" clip-rule="evenodd" d="M351.36 840.9102L345.12 840.9102L345.12 840.9102L345.12 833.3502L345.12 833.3502L351.36 833.3502z" /></clipPath><clipPath id="5"><path id="" clip-rule="evenodd" d="M444 840.9102L351.24 840.9102L351.24 840.9102L351.24 833.3502L351.24 833.3502L444 833.3502z" /></clipPath><clipPath id="6"><path id="" clip-rule="evenodd" d="M447.96 840.9102L444 840.9102L444 840.9102L444 833.3502L444 833.3502L447.96 833.3502z" /></clipPath><clipPath id="7"><path id="" clip-rule="evenodd" d="M485.04 840.9102L447.96 840.9102L447.96 840.9102L447.96 833.3502L447.96 833.3502L485.04 833.3502z" /></clipPath><clipPath id="8"><path id="" clip-rule="evenodd" d="M490.56 840.9102L485.04 840.9102L485.04 840.9102L485.04 833.3502L485.04 833.3502L490.56 833.3502z" /></clipPath></defs><g transform="matrix(1.333333 0 0 1.333333 0 0)"><g clip-path="url(#1)"><path id="12" transform="matrix(1 0 0 -1 0 841)" d="M90 738.4498L166.68 738.4498L166.68 737.3698L90 737.3698z" stroke="none" fill="#000000" fill-rule="nonzero" /><path id="57" transform="matrix(1 0 0 -1 0 841)" d="M90 721.6498L137.4 721.6498L137.4 720.5698L90 720.5698z" stroke="none" fill="#000000" fill-rule="nonzero" /><path id="115" transform="matrix(1 0 0 -1 0 841)" d="M90 704.9698L153.48 704.9698L153.48 703.8898L90 703.8898z" stroke="none" fill="#000000" fill-rule="nonzero" /><g transform="matrix(0.7503092 0 0 0.7502041 224.88 305.2302)"><g transform="matrix(1 0 0 1 0 0)"><image x="0" y="0" xlink:href="img_30.png" width="194" height="294" /></g></g><path id="634" transform="matrix(1 0 0 -1 0 841)" d="M328.56 39.3298L508.56 39.3298L508.56 0.08979797L328.56 0.08979797z" stroke="none" fill="#FFFFFF" fill-rule="nonzero" /><g clip-path="url(#2)"><path id="635" transform="matrix(1 0 0 -1 0 841)" d="M328.92 39.3298L328.56 39.3298L328.56 38.9698L508.56 38.9698L508.56 39.3298L508.2 39.3298L508.2 -68.6702L508.56 -68.6702L508.56 -68.3102L328.56 -68.3102L328.56 -68.6702L328.92 -68.6702zM328.2 -68.6702L328.2 -69.0302L328.56 -69.0302L508.56 -69.0302L508.92 -69.0302L508.92 -68.6702L508.92 39.3298L508.92 39.6898L508.56 39.6898L328.56 39.6898L328.2 39.6898L328.2 39.3298z" stroke="none" fill="#000000" fill-rule="nonzero" /></g><g clip-path="url(#3)"></g><g clip-path="url(#4)"></g><g clip-path="url(#5)"></g><g clip-path="url(#6)"></g><g clip-path="url(#7)"></g><g clip-path="url(#8)"></g></g></g></svg>