<svg xmlns="http://www.w3.org/2000/svg" xmlns:xlink="http://www.w3.org/1999/xlink" id="body_2" preserveAspectRatio="xMinYMin meet" viewBox="0 0 793 1121"><defs><clipPath id="1"><path id="" clip-rule="evenodd" d="M0 841L0 -0.8900146L0 -0.8900146L595.276 -0.8900146L595.276 -0.8900146L595.276 841L595.276 841L0 841z" /></clipPath></defs><g transform="matrix(1.333333 0 0 1.333333 0 0)"><g clip-path="url(#1)"><g transform="matrix(0.6552809 0 0 0.6233766 90 374.7102)"><g transform="matrix(1 0 0 1 0 0)"><image x="0" y="0" xlink:href="img_04.png" width="356" height="231" /></g></g><path id="375" transform="matrix(1 0 0 -1 0 841)" d="M319.08 516.4498L580.08 516.4498L580.08 273.4498L319.08 273.4498z" stroke="none" fill="#FFFFFF" fill-rule="nonzero" /><path id="376" transform="matrix(1 0 0 -1 0 841)" d="M319.44 516.4498L319.08 516.4498L319.08 516.0898L580.08 516.0898L580.08 516.4498L579.72 516.4498L579.72 273.4498L580.08 273.4498L580.08 273.8098L319.08 273.8098L319.08 273.4498L319.44 273.4498zM318.72 273.4498L318.72 273.0898L319.08 273.0898L580.08 273.0898L580.44 273.0898L580.44 273.4498L580.44 516.4498L580.44 516.8098L580.08 516.8098L319.08 516.8098L318.72 516.8098L318.72 516.4498z" stroke="none" fill="#000000" fill-rule="nonzero" /></g></g></svg>