<svg xmlns="http://www.w3.org/2000/svg" xmlns:xlink="http://www.w3.org/1999/xlink" id="body_12" preserveAspectRatio="xMinYMin meet" viewBox="0 0 793 1121"><defs><clipPath id="1"><path id="" clip-rule="evenodd" d="M0 841L0 -0.8900146L0 -0.8900146L595.276 -0.8900146L595.276 -0.8900146L595.276 841L595.276 841L0 841z" /></clipPath><clipPath id="2"><path id="" clip-rule="evenodd" d="M441.84 723.3102L432.24 723.3102L432.24 723.3102L432.24 716.1102L432.24 716.1102L441.84 716.1102z" /></clipPath></defs><g transform="matrix(1.333333 0 0 1.333333 0 0)"><g clip-path="url(#1)"><g transform="matrix(0.75 0 0 0.75 90 84.91022)"><g transform="matrix(1 0 0 1 0 0)"><image x="0" y="0" xlink:href="img_32.png" width="236" height="276" /></g></g><g transform="matrix(0.75 0 0 0.7497842 177.6 342.0702)"><g transform="matrix(1 0 0 1 0 0)"><image x="0" y="0" xlink:href="img_33.png" width="320" height="278" /></g></g><path id="169" transform="matrix(1 0 0 -1 0 841)" d="M400.56 128.8498L562.56 128.8498L562.56 47.84979L400.56 47.84979z" stroke="none" fill="#FFFFFF" fill-rule="nonzero" /><path id="170" transform="matrix(1 0 0 -1 0 841)" d="M400.92 128.8498L400.56 128.8498L400.56 128.4898L562.56 128.4898L562.56 128.8498L562.2 128.8498L562.2 47.8498L562.56 47.8498L562.56 48.2098L400.56 48.2098L400.56 47.8498L400.92 47.8498zM400.2 47.8498L400.2 47.4898L400.56 47.4898L562.56 47.4898L562.92 47.4898L562.92 47.8498L562.92 128.8498L562.92 129.2098L562.56 129.2098L400.56 129.2098L400.2 129.2098L400.2 128.8498z" stroke="none" fill="#000000" fill-rule="nonzero" /><g clip-path="url(#2)"></g></g></g></svg>