<svg xmlns="http://www.w3.org/2000/svg" xmlns:xlink="http://www.w3.org/1999/xlink" id="body_6" preserveAspectRatio="xMinYMin meet" viewBox="0 0 793 1121"><defs><clipPath id="1"><path id="" clip-rule="evenodd" d="M0 841L0 -0.8900146L0 -0.8900146L595.276 -0.8900146L595.276 -0.8900146L595.276 841L595.276 841L0 841z" /></clipPath></defs><g transform="matrix(1.333333 0 0 1.333333 0 0)"><g clip-path="url(#1)"><g transform="matrix(0.75 0 0 0.7502438 212.16 71.11023)"><g transform="matrix(1 0 0 1 0 0)"><image x="0" y="0" xlink:href="img_14.png" width="228" height="246" /></g></g><g transform="matrix(0.5309638 0 0 0.5303704 90 302.9502)"><g transform="matrix(1 0 0 1 0 0)"><image x="0" y="0" xlink:href="img_15.png" width="332" height="324" /></g></g><g transform="matrix(0.7504478 0 0 0.7502608 174.6 574.9902)"><g transform="matrix(1 0 0 1 0 0)"><image x="0" y="0" xlink:href="img_16.png" width="134" height="230" /></g></g><g transform="matrix(0.7503092 0 0 0.7503158 275.16 604.9902)"><g transform="matrix(1 0 0 1 0 0)"><image x="0" y="0" xlink:href="img_17.png" width="194" height="190" /></g></g><path id="212" transform="matrix(1 0 0 -1 0 841)" d="M328.56 566.3698L535.56 566.3698L535.56 404.3698L328.56 404.3698z" stroke="none" fill="#FFFFFF" fill-rule="nonzero" /><path id="213" transform="matrix(1 0 0 -1 0 841)" d="M328.92 566.3698L328.56 566.3698L328.56 566.0098L535.56 566.0098L535.56 566.3698L535.2 566.3698L535.2 404.3698L535.56 404.3698L535.56 404.7298L328.56 404.7298L328.56 404.3698L328.92 404.3698zM328.2 404.3698L328.2 404.0098L328.56 404.0098L535.56 404.0098L535.92 404.0098L535.92 404.3698L535.92 566.3698L535.92 566.7298L535.56 566.7298L328.56 566.7298L328.2 566.7298L328.2 566.3698z" stroke="none" fill="#000000" fill-rule="nonzero" /></g></g></svg>