<svg xmlns="http://www.w3.org/2000/svg" xmlns:xlink="http://www.w3.org/1999/xlink" id="body_9" preserveAspectRatio="xMinYMin meet" viewBox="0 0 793 1121"><defs><clipPath id="1"><path id="" clip-rule="evenodd" d="M0 841L0 -0.8900146L0 -0.8900146L595.276 -0.8900146L595.276 -0.8900146L595.276 841L595.276 841L0 841z" /></clipPath></defs><g transform="matrix(1.333333 0 0 1.333333 0 0)"><g clip-path="url(#1)"><g transform="matrix(0.7502158 0 0 0.7503158 158.16 164.8302)"><g transform="matrix(1 0 0 1 0 0)"><image x="0" y="0" xlink:href="img_25.png" width="139" height="285" /></g></g><g transform="matrix(0.7498713 0 0 0.7499065 262.44 137.9502)"><g transform="matrix(1 0 0 1 0 0)"><image x="0" y="0" xlink:href="img_26.png" width="233" height="321" /></g></g><path id="295" transform="matrix(1 0 0 -1 0 841)" d="M355.08 299.1298L580.08 299.1298L580.08 92.12979L355.08 92.12979z" stroke="none" fill="#FFFFFF" fill-rule="nonzero" /><path id="296" transform="matrix(1 0 0 -1 0 841)" d="M355.44 299.1298L355.08 299.1298L355.08 298.7698L580.08 298.7698L580.08 299.1298L579.72 299.1298L579.72 92.1298L580.08 92.1298L580.08 92.4898L355.08 92.4898L355.08 92.1298L355.44 92.1298zM354.72 92.1298L354.72 91.7698L355.08 91.7698L580.08 91.7698L580.44 91.7698L580.44 92.1298L580.44 299.1298L580.44 299.4898L580.08 299.4898L355.08 299.4898L354.72 299.4898L354.72 299.1298z" stroke="none" fill="#000000" fill-rule="nonzero" /></g></g></svg>