<svg xmlns="http://www.w3.org/2000/svg" xmlns:xlink="http://www.w3.org/1999/xlink" id="body_7" preserveAspectRatio="xMinYMin meet" viewBox="0 0 793 1121"><defs><clipPath id="1"><path id="" clip-rule="evenodd" d="M0 841L0 -0.8900146L0 -0.8900146L595.276 -0.8900146L595.276 -0.8900146L595.276 841L595.276 841L0 841z" /></clipPath><clipPath id="2"><path id="" clip-rule="evenodd" d="M405.84 138.0702L396.24 138.0702L396.24 138.0702L396.24 130.8702L396.24 130.8702L405.84 130.8702z" /></clipPath></defs><g transform="matrix(1.333333 0 0 1.333333 0 0)"><g clip-path="url(#1)"><g transform="matrix(0.75 0 0 0.75 90 135.0702)"><g transform="matrix(1 0 0 1 0 0)"><image x="0" y="0" xlink:href="img_19.png" width="308" height="208" /></g></g><g transform="matrix(0.7497213 0 0 0.7498413 176.52 424.8702)"><g transform="matrix(1 0 0 1 0 0)"><image x="0" y="0" xlink:href="img_20.png" width="323" height="189" /></g></g><path id="284" transform="matrix(1 0 0 -1 0 841)" d="M364.56 714.0898L589.56 714.0898L589.56 588.0898L364.56 588.0898z" stroke="none" fill="#FFFFFF" fill-rule="nonzero" /><path id="285" transform="matrix(1 0 0 -1 0 841)" d="M364.92 714.0898L364.56 714.0898L364.56 713.7298L589.56 713.7298L589.56 714.0898L589.2 714.0898L589.2 588.0898L589.56 588.0898L589.56 588.4498L364.56 588.4498L364.56 588.0898L364.92 588.0898zM364.2 588.0898L364.2 587.7298L364.56 587.7298L589.56 587.7298L589.92 587.7298L589.92 588.0898L589.92 714.0898L589.92 714.4498L589.56 714.4498L364.56 714.4498L364.2 714.4498L364.2 714.0898z" stroke="none" fill="#000000" fill-rule="nonzero" /><g clip-path="url(#2)"></g><path id="410" transform="matrix(1 0 0 -1 0 841)" d="M364.56 147.5698L589.56 147.5698L589.56 66.56979L364.56 66.56979z" stroke="none" fill="#FFFFFF" fill-rule="nonzero" /><path id="411" transform="matrix(1 0 0 -1 0 841)" d="M364.92 147.5698L364.56 147.5698L364.56 147.2098L589.56 147.2098L589.56 147.5698L589.2 147.5698L589.2 66.5698L589.56 66.5698L589.56 66.9298L364.56 66.9298L364.56 66.5698L364.92 66.5698zM364.2 66.5698L364.2 66.2098L364.56 66.2098L589.56 66.2098L589.92 66.2098L589.92 66.5698L589.92 147.5698L589.92 147.9298L589.56 147.9298L364.56 147.9298L364.2 147.9298L364.2 147.5698z" stroke="none" fill="#000000" fill-rule="nonzero" /></g></g></svg>