<svg xmlns="http://www.w3.org/2000/svg" xmlns:xlink="http://www.w3.org/1999/xlink" id="body_3" preserveAspectRatio="xMinYMin meet" viewBox="0 0 793 1121"><defs><clipPath id="1"><path id="" clip-rule="evenodd" d="M0 841L0 -0.8900146L0 -0.8900146L595.276 -0.8900146L595.276 -0.8900146L595.276 841L595.276 841L0 841z" /></clipPath><clipPath id="2"><path id="" clip-rule="evenodd" d="M595.2 840.9102L347.16 840.9102L347.16 840.9102L347.16 737.3502L347.16 737.3502L595.2 737.3502z" /></clipPath><clipPath id="3"><path id="" clip-rule="evenodd" d="M367.56 840.9102L358.56 840.9102L358.56 840.9102L358.56 827.9502L358.56 827.9502L367.56 827.9502z" /></clipPath><clipPath id="4"><path id="" clip-rule="evenodd" d="M373.68 840.9102L367.44 840.9102L367.44 840.9102L367.44 827.9502L367.44 827.9502L373.68 827.9502z" /></clipPath><clipPath id="5"><path id="" clip-rule="evenodd" d="M486.48 840.9102L373.56 840.9102L373.56 840.9102L373.56 827.9502L373.56 827.9502L486.48 827.9502z" /></clipPath><clipPath id="6"><path id="" clip-rule="evenodd" d="M490.44 840.9102L486.48 840.9102L486.48 840.9102L486.48 827.9502L486.48 827.9502L490.44 827.9502z" /></clipPath><clipPath id="7"><path id="" clip-rule="evenodd" d="M537 840.9102L490.44 840.9102L490.44 840.9102L490.44 827.9502L490.44 827.9502L537 827.9502z" /></clipPath><clipPath id="8"><path id="" clip-rule="evenodd" d="M542.52 840.9102L537 840.9102L537 840.9102L537 827.9502L537 827.9502L542.52 827.9502z" /></clipPath></defs><g transform="matrix(1.333333 0 0 1.333333 0 0)"><g clip-path="url(#1)"><g transform="matrix(0.7145578 0 0 0.7147827 90 71.11023)"><g transform="matrix(1 0 0 1 0 0)"><image x="0" y="0" xlink:href="img_04.png" width="441" height="322" /></g></g><path id="376" transform="matrix(1 0 0 -1 0 841)" d="M351 99.8098L595.2 99.8098L595.2 0.08979797L351 0.08979797z" stroke="none" fill="#FFFFFF" fill-rule="nonzero" /><g clip-path="url(#2)"><path id="377" transform="matrix(1 0 0 -1 0 841)" d="M351.36 99.8098L351 99.8098L351 99.4498L603 99.4498L603 99.8098L602.64 99.8098L602.64 -98.1902L603 -98.1902L603 -97.8302L351 -97.8302L351 -98.1902L351.36 -98.1902zM350.64 -98.1902L350.64 -98.5502L351 -98.5502L603 -98.5502L603.36 -98.5502L603.36 -98.1902L603.36 99.8098L603.36 100.1698L603 100.1698L351 100.1698L350.64 100.1698L350.64 99.8098z" stroke="none" fill="#000000" fill-rule="nonzero" /></g><g clip-path="url(#3)"></g><g clip-path="url(#4)"></g><g clip-path="url(#5)"></g><g clip-path="url(#6)"></g><g clip-path="url(#7)"></g><g clip-path="url(#8)"></g></g></g></svg>