<svg xmlns="http://www.w3.org/2000/svg" xmlns:xlink="http://www.w3.org/1999/xlink" id="body_2" preserveAspectRatio="xMinYMin meet" viewBox="0 0 793 1121"><defs><clipPath id="1"><path id="" clip-rule="evenodd" d="M0 841L0 -0.8900146L0 -0.8900146L595.276 -0.8900146L595.276 -0.8900146L595.276 841L595.276 841L0 841z" /></clipPath><clipPath id="2"><path id="" clip-rule="evenodd" d="M595.2 693.6702L383.16 693.6702L383.16 693.6702L383.16 550.8702L383.16 550.8702L595.2 550.8702z" /></clipPath></defs><g transform="matrix(1.333333 0 0 1.333333 0 0)"><g clip-path="url(#1)"><path id="580" transform="matrix(1 0 0 -1 0 841)" d="M387 286.2898L595.2 286.2898L595.2 151.2898L387 151.2898z" stroke="none" fill="#FFFFFF" fill-rule="nonzero" /><g clip-path="url(#2)"><path id="581" transform="matrix(1 0 0 -1 0 841)" d="M387.36 286.2898L387 286.2898L387 285.9298L612 285.9298L612 286.2898L611.64 286.2898L611.64 151.2898L612 151.2898L612 151.6498L387 151.6498L387 151.2898L387.36 151.2898zM386.64 151.2898L386.64 150.9298L387 150.9298L612 150.9298L612.36 150.9298L612.36 151.2898L612.36 286.2898L612.36 286.6498L612 286.6498L387 286.6498L386.64 286.6498L386.64 286.2898z" stroke="none" fill="#000000" fill-rule="nonzero" /></g></g></g></svg>