<svg xmlns="http://www.w3.org/2000/svg" xmlns:xlink="http://www.w3.org/1999/xlink" id="body_1" preserveAspectRatio="xMinYMin meet" viewBox="0 0 793 1121"><defs><clipPath id="1"><path id="" clip-rule="evenodd" d="M0 841L0 -0.8900146L0 -0.8900146L595.276 -0.8900146L595.276 -0.8900146L595.276 841L595.276 841L0 841z" /></clipPath></defs><g transform="matrix(1.333333 0 0 1.333333 0 0)"><g clip-path="url(#1)"><g transform="matrix(0.6532258 0 0 0.6530061 90 157.3902)"><g transform="matrix(1 0 0 1 0 0)"><image x="0" y="0" xlink:href="img_01.png" width="372" height="326" /></g></g><path id="420" transform="matrix(1 0 0 -1 0 841)" d="M360 661.8898L585 661.8898L585 562.8898L360 562.8898z" stroke="none" fill="#FFFFFF" fill-rule="nonzero" /><path id="421" transform="matrix(1 0 0 -1 0 841)" d="M360.36 661.8898L360 661.8898L360 661.5298L585 661.5298L585 661.8898L584.64 661.8898L584.64 562.8898L585 562.8898L585 563.2498L360 563.2498L360 562.8898L360.36 562.8898zM359.64 562.8898L359.64 562.5298L360 562.5298L585 562.5298L585.36 562.5298L585.36 562.8898L585.36 661.8898L585.36 662.2498L585 662.2498L360 662.2498L359.64 662.2498L359.64 661.8898z" stroke="none" fill="#000000" fill-rule="nonzero" /></g></g></svg>