<svg xmlns="http://www.w3.org/2000/svg" xmlns:xlink="http://www.w3.org/1999/xlink" id="body_5" preserveAspectRatio="xMinYMin meet" viewBox="0 0 793 1121"><defs><clipPath id="1"><path id="" clip-rule="evenodd" d="M0 841L0 -0.8900146L0 -0.8900146L595.276 -0.8900146L595.276 -0.8900146L595.276 841L595.276 841L0 841z" /></clipPath></defs><g transform="matrix(1.333333 0 0 1.333333 0 0)"><g clip-path="url(#1)"><g transform="matrix(0.6636422 0 0 0.6639721 193.8 121.2702)"><g transform="matrix(1 0 0 1 0 0)"><image x="0" y="0" xlink:href="img_12.png" width="313" height="287" /></g></g><g transform="matrix(0.5175439 0 0 0.516766 90 358.9902)"><g transform="matrix(1 0 0 1 0 0)"><image x="0" y="0" xlink:href="img_13.png" width="342" height="470" /></g></g><path id="296" transform="matrix(1 0 0 -1 0 841)" d="M292.08 449.2498L526.08 449.2498L526.08 350.2498L292.08 350.2498z" stroke="none" fill="#FFFFFF" fill-rule="nonzero" /><path id="297" transform="matrix(1 0 0 -1 0 841)" d="M292.44 449.2498L292.08 449.2498L292.08 448.8898L526.08 448.8898L526.08 449.2498L525.72 449.2498L525.72 350.2498L526.08 350.2498L526.08 350.6098L292.08 350.6098L292.08 350.2498L292.44 350.2498zM291.72 350.2498L291.72 349.8898L292.08 349.8898L526.08 349.8898L526.44 349.8898L526.44 350.2498L526.44 449.2498L526.44 449.6098L526.08 449.6098L292.08 449.6098L291.72 449.6098L291.72 449.2498z" stroke="none" fill="#000000" fill-rule="nonzero" /></g></g></svg>