<svg xmlns="http://www.w3.org/2000/svg" xmlns:xlink="http://www.w3.org/1999/xlink" id="body_2" preserveAspectRatio="xMinYMin meet" viewBox="0 0 793 1121"><defs><clipPath id="1"><path id="" clip-rule="evenodd" d="M0 841L0 -0.8900146L0 -0.8900146L595.276 -0.8900146L595.276 -0.8900146L595.276 841L595.276 841L0 841z" /></clipPath><clipPath id="2"><path id="" clip-rule="evenodd" d="M557.04 840.9102L279.24 840.9102L279.24 840.9102L279.24 624.5502L279.24 624.5502L557.04 624.5502z" /></clipPath></defs><g transform="matrix(1.333333 0 0 1.333333 0 0)"><g clip-path="url(#1)"><g transform="matrix(0.544468 0 0 0.5450127 195.24 71.11023)"><g transform="matrix(1 0 0 1 0 0)"><image x="0" y="0" xlink:href="img_04.png" width="376" height="395" /></g></g><g transform="matrix(0.536144 0 0 0.5385149 193.32 303.0702)"><g transform="matrix(1 0 0 1 0 0)"><image x="0" y="0" xlink:href="img_05.png" width="389" height="404" /></g></g><path id="175" transform="matrix(1 0 0 -1 0 841)" d="M283.08 212.6098L553.08 212.6098L553.08 0.08979797L283.08 0.08979797z" stroke="none" fill="#FFFFFF" fill-rule="nonzero" /><g clip-path="url(#2)"><path id="176" transform="matrix(1 0 0 -1 0 841)" d="M283.44 212.6098L283.08 212.6098L283.08 212.2498L553.08 212.2498L553.08 212.6098L552.72 212.6098L552.72 -21.3902L553.08 -21.3902L553.08 -21.0302L283.08 -21.0302L283.08 -21.3902L283.44 -21.3902zM282.72 -21.3902L282.72 -21.7502L283.08 -21.7502L553.08 -21.7502L553.44 -21.7502L553.44 -21.3902L553.44 212.6098L553.44 212.9698L553.08 212.9698L283.08 212.9698L282.72 212.9698L282.72 212.6098z" stroke="none" fill="#000000" fill-rule="nonzero" /></g></g></g></svg>