<svg xmlns="http://www.w3.org/2000/svg" xmlns:xlink="http://www.w3.org/1999/xlink" id="body_8" preserveAspectRatio="xMinYMin meet" viewBox="0 0 793 1121"><defs><clipPath id="1"><path id="" clip-rule="evenodd" d="M0 841L0 -0.8900146L0 -0.8900146L595.276 -0.8900146L595.276 -0.8900146L595.276 841L595.276 841L0 841z" /></clipPath><clipPath id="2"><path id="" clip-rule="evenodd" d="M557.04 840.9102L333.24 840.9102L333.24 840.9102L333.24 745.6302L333.24 745.6302L557.04 745.6302z" /></clipPath></defs><g transform="matrix(1.333333 0 0 1.333333 0 0)"><g clip-path="url(#1)"><g transform="matrix(0.5721739 0 0 0.5728534 238.44 71.11023)"><g transform="matrix(1 0 0 1 0 0)"><image x="0" y="0" xlink:href="img_21.png" width="207" height="389" /></g></g><path id="688" transform="matrix(1 0 0 -1 0 841)" d="M337.08 91.5298L553.08 91.5298L553.08 0.08979797L337.08 0.08979797z" stroke="none" fill="#FFFFFF" fill-rule="nonzero" /><g clip-path="url(#2)"><path id="689" transform="matrix(1 0 0 -1 0 841)" d="M337.44 91.5298L337.08 91.5298L337.08 91.1698L553.08 91.1698L553.08 91.5298L552.72 91.5298L552.72 -7.4702L553.08 -7.4702L553.08 -7.1102L337.08 -7.1102L337.08 -7.4702L337.44 -7.4702zM336.72 -7.4702L336.72 -7.8302L337.08 -7.8302L553.08 -7.8302L553.44 -7.8302L553.44 -7.4702L553.44 91.5298L553.44 91.8898L553.08 91.8898L337.08 91.8898L336.72 91.8898L336.72 91.5298z" stroke="none" fill="#000000" fill-rule="nonzero" /></g></g></g></svg>