<svg xmlns="http://www.w3.org/2000/svg" xmlns:xlink="http://www.w3.org/1999/xlink" id="body_6" preserveAspectRatio="xMinYMin meet" viewBox="0 0 793 1121"><defs><clipPath id="1"><path id="" clip-rule="evenodd" d="M0 841L0 -0.8900146L0 -0.8900146L595.276 -0.8900146L595.276 -0.8900146L595.276 841L595.276 841L0 841z" /></clipPath></defs><g transform="matrix(1.333333 0 0 1.333333 0 0)"><g clip-path="url(#1)"><g transform="matrix(0.6833121 0 0 0.6804395 136.68 104.4702)"><g transform="matrix(1 0 0 1 0 0)"><image x="0" y="0" xlink:href="img_15.png" width="471" height="182" /></g></g><g transform="matrix(0.63286 0 0 0.6325714 141.6 479.1102)"><g transform="matrix(1 0 0 1 0 0)"><image x="0" y="0" xlink:href="img_16.png" width="493" height="140" /></g></g><path id="458" transform="matrix(1 0 0 -1 0 841)" d="M328.08 241.7698L589.08 241.7698L589.08 43.76981L328.08 43.76981z" stroke="none" fill="#FFFFFF" fill-rule="nonzero" /><path id="459" transform="matrix(1 0 0 -1 0 841)" d="M328.44 241.7698L328.08 241.7698L328.08 241.4098L589.08 241.4098L589.08 241.7698L588.72 241.7698L588.72 43.7698L589.08 43.7698L589.08 44.1298L328.08 44.1298L328.08 43.7698L328.44 43.7698zM327.72 43.7698L327.72 43.4098L328.08 43.4098L589.08 43.4098L589.44 43.4098L589.44 43.7698L589.44 241.7698L589.44 242.1298L589.08 242.1298L328.08 242.1298L327.72 242.1298L327.72 241.7698z" stroke="none" fill="#000000" fill-rule="nonzero" /></g></g></svg>