<svg xmlns="http://www.w3.org/2000/svg" xmlns:xlink="http://www.w3.org/1999/xlink" id="body_3" preserveAspectRatio="xMinYMin meet" viewBox="0 0 793 1121"><defs><clipPath id="1"><path id="" clip-rule="evenodd" d="M0 841L0 -0.8900146L0 -0.8900146L595.276 -0.8900146L595.276 -0.8900146L595.276 841L595.276 841L0 841z" /></clipPath><clipPath id="2"><path id="" clip-rule="evenodd" d="M548.04 840.9102L320.16 840.9102L320.16 840.9102L320.16 751.0302L320.16 751.0302L548.04 751.0302z" /></clipPath><clipPath id="3"><path id="" clip-rule="evenodd" d="M340.56 840.9102L331.56 840.9102L331.56 840.9102L331.56 827.9502L331.56 827.9502L340.56 827.9502z" /></clipPath><clipPath id="4"><path id="" clip-rule="evenodd" d="M346.68 840.9102L340.44 840.9102L340.44 840.9102L340.44 827.9502L340.44 827.9502L346.68 827.9502z" /></clipPath><clipPath id="5"><path id="" clip-rule="evenodd" d="M380.28 840.9102L346.56 840.9102L346.56 840.9102L346.56 827.9502L346.56 827.9502L380.28 827.9502z" /></clipPath><clipPath id="6"><path id="" clip-rule="evenodd" d="M385.68 840.9102L380.28 840.9102L380.28 840.9102L380.28 827.9502L380.28 827.9502L385.68 827.9502z" /></clipPath></defs><g transform="matrix(1.333333 0 0 1.333333 0 0)"><g clip-path="url(#1)"><g transform="matrix(0.75 0 0 0.7498065 177.6 71.11017)"><g transform="matrix(1 0 0 1 0 0)"><image x="0" y="0" xlink:href="img_06.png" width="320" height="310" /></g></g><path id="540" transform="matrix(1 0 0 -1 0 841)" d="M324 86.1298L544.08 86.1298L544.08 0.08979797L324 0.08979797z" stroke="none" fill="#FFFFFF" fill-rule="nonzero" /><g clip-path="url(#2)"><path id="541" transform="matrix(1 0 0 -1 0 841)" d="M324.36 86.1298L324 86.1298L324 85.7698L544.08 85.7698L544.08 86.1298L543.72 86.1298L543.72 -75.8702L544.08 -75.8702L544.08 -75.5102L324 -75.5102L324 -75.8702L324.36 -75.8702zM323.64 -75.8702L323.64 -76.2302L324 -76.2302L544.08 -76.2302L544.44 -76.2302L544.44 -75.8702L544.44 86.1298L544.44 86.4898L544.08 86.4898L324 86.4898L323.64 86.4898L323.64 86.1298z" stroke="none" fill="#000000" fill-rule="nonzero" /></g><g clip-path="url(#3)"></g><g clip-path="url(#4)"></g><g clip-path="url(#5)"></g><g clip-path="url(#6)"></g></g></g></svg>