<svg xmlns="http://www.w3.org/2000/svg" xmlns:xlink="http://www.w3.org/1999/xlink" id="body_1" preserveAspectRatio="xMinYMin meet" viewBox="0 0 793 1121"><defs><clipPath id="1"><path id="" clip-rule="evenodd" d="M0 841L0 -0.8900146L0 -0.8900146L595.276 -0.8900146L595.276 -0.8900146L595.276 841L595.276 841L0 841z" /></clipPath><clipPath id="2"><path id="" clip-rule="evenodd" d="M593.04 840.9102L356.16 840.9102L356.16 840.9102L356.16 698.7102L356.16 698.7102L593.04 698.7102z" /></clipPath><clipPath id="3"><path id="" clip-rule="evenodd" d="M398.16 713.7102L388.56 713.7102L388.56 713.7102L388.56 706.5102L388.56 706.5102L398.16 706.5102z" /></clipPath><clipPath id="4"><path id="" clip-rule="evenodd" d="M382.56 840.9102L367.56 840.9102L367.56 840.9102L367.56 830.7102L367.56 830.7102L382.56 830.7102z" /></clipPath><clipPath id="5"><path id="" clip-rule="evenodd" d="M388.68 840.9102L382.44 840.9102L382.44 840.9102L382.44 830.7102L382.44 830.7102L388.68 830.7102z" /></clipPath><clipPath id="6"><path id="" clip-rule="evenodd" d="M491.52 840.9102L388.56 840.9102L388.56 840.9102L388.56 830.7102L388.56 830.7102L491.52 830.7102z" /></clipPath><clipPath id="7"><path id="" clip-rule="evenodd" d="M496.92 840.9102L491.52 840.9102L491.52 840.9102L491.52 830.7102L491.52 830.7102L496.92 830.7102z" /></clipPath></defs><g transform="matrix(1.333333 0 0 1.333333 0 0)"><g clip-path="url(#1)"><g transform="matrix(0.7498795 0 0 0.75 125.52 71.11023)"><g transform="matrix(1 0 0 1 0 0)"><image x="0" y="0" xlink:href="img_01.png" width="249" height="336" /></g></g><g transform="matrix(0.7502564 0 0 0.75 312.24 104.1102)"><g transform="matrix(1 0 0 1 0 0)"><image x="0" y="0" xlink:href="img_02.png" width="234" height="292" /></g></g><path id="417" transform="matrix(1 0 0 -1 0 841)" d="M360 138.4498L589.08 138.4498L589.08 0.08979797L360 0.08979797z" stroke="none" fill="#FFFFFF" fill-rule="nonzero" /><g clip-path="url(#2)"><path id="418" transform="matrix(1 0 0 -1 0 841)" d="M360.36 138.4498L360 138.4498L360 138.0898L589.08 138.0898L589.08 138.4498L588.72 138.4498L588.72 -95.5502L589.08 -95.5502L589.08 -95.1902L360 -95.1902L360 -95.5502L360.36 -95.5502zM359.64 -95.5502L359.64 -95.9102L360 -95.9102L589.08 -95.9102L589.44 -95.9102L589.44 -95.5502L589.44 138.4498L589.44 138.8098L589.08 138.8098L360 138.8098L359.64 138.8098L359.64 138.4498z" stroke="none" fill="#000000" fill-rule="nonzero" /></g><g clip-path="url(#3)"></g><g clip-path="url(#4)"></g><g clip-path="url(#5)"></g><g clip-path="url(#6)"></g><g clip-path="url(#7)"></g></g></g></svg>