<svg xmlns="http://www.w3.org/2000/svg" xmlns:xlink="http://www.w3.org/1999/xlink" id="body_4" preserveAspectRatio="xMinYMin meet" viewBox="0 0 793 1121"><defs><clipPath id="1"><path id="" clip-rule="evenodd" d="M0 841L0 -0.8900146L0 -0.8900146L595.276 -0.8900146L595.276 -0.8900146L595.276 841L595.276 841L0 841z" /></clipPath></defs><g transform="matrix(1.333333 0 0 1.333333 0 0)"><g clip-path="url(#1)"><g transform="matrix(0.5495871 0 0 0.5499029 144.6 221.5902)"><g transform="matrix(1 0 0 1 0 0)"><image x="0" y="0" xlink:href="img_08.png" width="557" height="206" /></g></g><path id="372" transform="matrix(1 0 0 -1 0 841)" d="M333 259.2898L567 259.2898L567 106.2898L333 106.2898z" stroke="none" fill="#FFFFFF" fill-rule="nonzero" /><path id="373" transform="matrix(1 0 0 -1 0 841)" d="M333.36 259.2898L333 259.2898L333 258.9298L567 258.9298L567 259.2898L566.64 259.2898L566.64 106.2898L567 106.2898L567 106.6498L333 106.6498L333 106.2898L333.36 106.2898zM332.64 106.2898L332.64 105.9298L333 105.9298L567 105.9298L567.36 105.9298L567.36 106.2898L567.36 259.2898L567.36 259.6498L567 259.6498L333 259.6498L332.64 259.6498L332.64 259.2898z" stroke="none" fill="#000000" fill-rule="nonzero" /></g></g></svg>