<svg xmlns="http://www.w3.org/2000/svg" xmlns:xlink="http://www.w3.org/1999/xlink" id="body_1" preserveAspectRatio="xMinYMin meet" viewBox="0 0 793 1121"><defs><clipPath id="1"><path id="" clip-rule="evenodd" d="M0 841L0 -0.8900146L0 -0.8900146L595.276 -0.8900146L595.276 -0.8900146L595.276 841L595.276 841L0 841z" /></clipPath><clipPath id="2"><path id="" clip-rule="evenodd" d="M595.2 638.2302L347.16 638.2302L347.16 638.2302L347.16 324.4302L347.16 324.4302L595.2 324.4302z" /></clipPath><clipPath id="3"><path id="" clip-rule="evenodd" d="M595.2 840.9102L347.16 840.9102L347.16 840.9102L347.16 748.5102L347.16 748.5102L595.2 748.5102z" /></clipPath><clipPath id="4"><path id="" clip-rule="evenodd" d="M367.56 840.9102L358.56 840.9102L358.56 840.9102L358.56 839.2302L358.56 839.2302L367.56 839.2302z" /></clipPath><clipPath id="5"><path id="" clip-rule="evenodd" d="M373.68 840.9102L367.44 840.9102L367.44 840.9102L367.44 839.2302L367.44 839.2302L373.68 839.2302z" /></clipPath><clipPath id="6"><path id="" clip-rule="evenodd" d="M521.16 840.9102L373.56 840.9102L373.56 840.9102L373.56 839.2302L373.56 839.2302L521.16 839.2302z" /></clipPath><clipPath id="7"><path id="" clip-rule="evenodd" d="M526.56 840.9102L521.16 840.9102L521.16 840.9102L521.16 839.2302L521.16 839.2302L526.56 839.2302z" /></clipPath></defs><g transform="matrix(1.333333 0 0 1.333333 0 0)"><g clip-path="url(#1)"><g transform="matrix(0.8296 0 0 0.8310408 90 324.5502)"><g transform="matrix(1 0 0 1 0 0)"><image x="0" y="0" xlink:href="img_01.png" width="300" height="442" /></g></g><path id="216" transform="matrix(1 0 0 -1 0 841)" d="M351 512.7298L594 512.7298L594 206.7298L351 206.7298z" stroke="none" fill="#FFFFFF" fill-rule="nonzero" /><g clip-path="url(#2)"><path id="217" transform="matrix(1 0 0 -1 0 841)" d="M351.36 512.7298L351 512.7298L351 512.3698L594 512.3698L594 512.7298L593.64 512.7298L593.64 206.7298L594 206.7298L594 207.0898L351 207.0898L351 206.7298L351.36 206.7298zM350.64 206.7298L350.64 206.3698L351 206.3698L594 206.3698L594.36 206.3698L594.36 206.7298L594.36 512.7298L594.36 513.0898L594 513.0898L351 513.0898L350.64 513.0898L350.64 512.7298z" stroke="none" fill="#000000" fill-rule="nonzero" /></g><path id="610" transform="matrix(1 0 0 -1 0 841)" d="M351 88.6498L594 88.6498L594 0.0898056L351 0.0898056z" stroke="none" fill="#FFFFFF" fill-rule="nonzero" /><g clip-path="url(#3)"><path id="611" transform="matrix(1 0 0 -1 0 841)" d="M351.36 88.6498L351 88.6498L351 88.2898L594 88.2898L594 88.6498L593.64 88.6498L593.64 -244.3502L594 -244.3502L594 -243.9902L351 -243.9902L351 -244.3502L351.36 -244.3502zM350.64 -244.3502L350.64 -244.7102L351 -244.7102L594 -244.7102L594.36 -244.7102L594.36 -244.3502L594.36 88.6498L594.36 89.0098L594 89.0098L351 89.0098L350.64 89.0098L350.64 88.6498z" stroke="none" fill="#000000" fill-rule="nonzero" /></g><g clip-path="url(#4)"></g><g clip-path="url(#5)"></g><g clip-path="url(#6)"></g><g clip-path="url(#7)"></g></g></g></svg>