<svg xmlns="http://www.w3.org/2000/svg" xmlns:xlink="http://www.w3.org/1999/xlink" id="body_16" preserveAspectRatio="xMinYMin meet" viewBox="0 0 793 1121"><defs><clipPath id="1"><path id="" clip-rule="evenodd" d="M0 841L0 -0.8900146L0 -0.8900146L595.276 -0.8900146L595.276 -0.8900146L595.276 841L595.276 841L0 841z" /></clipPath></defs><g transform="matrix(1.333333 0 0 1.333333 0 0)"><g clip-path="url(#1)"><g transform="matrix(0.749911 0 0 0.7501045 171.24 154.7502)"><g transform="matrix(1 0 0 1 0 0)"><image x="0" y="0" xlink:href="img_39.png" width="337" height="287" /></g></g><g transform="matrix(0.7499003 0 0 0.7496629 184.8 370.0302)"><g transform="matrix(1 0 0 1 0 0)"><image x="0" y="0" xlink:href="img_40.png" width="301" height="267" /></g></g><path id="139" transform="matrix(1 0 0 -1 0 841)" d="M256.08 177.4498L553.08 177.4498L553.08 60.4498L256.08 60.4498z" stroke="none" fill="#FFFFFF" fill-rule="nonzero" /><path id="140" transform="matrix(1 0 0 -1 0 841)" d="M256.44 177.4498L256.08 177.4498L256.08 177.0898L553.08 177.0898L553.08 177.4498L552.72 177.4498L552.72 60.4498L553.08 60.4498L553.08 60.8098L256.08 60.8098L256.08 60.4498L256.44 60.4498zM255.72 60.4498L255.72 60.0898L256.08 60.0898L553.08 60.0898L553.44 60.0898L553.44 60.4498L553.44 177.4498L553.44 177.8098L553.08 177.8098L256.08 177.8098L255.72 177.8098L255.72 177.4498z" stroke="none" fill="#000000" fill-rule="nonzero" /></g></g></svg>