<svg xmlns="http://www.w3.org/2000/svg" xmlns:xlink="http://www.w3.org/1999/xlink" id="body_3" preserveAspectRatio="xMinYMin meet" viewBox="0 0 793 1121"><defs><clipPath id="1"><path id="" clip-rule="evenodd" d="M0 841L0 -0.8900146L0 -0.8900146L595.276 -0.8900146L595.276 -0.8900146L595.276 841L595.276 841L0 841z" /></clipPath></defs><g transform="matrix(1.333333 0 0 1.333333 0 0)"><g clip-path="url(#1)"><g transform="matrix(0.6721311 0 0 0.6721992 174.6 221.5902)"><g transform="matrix(1 0 0 1 0 0)"><image x="0" y="0" xlink:href="img_05.png" width="366" height="241" /></g></g><path id="417" transform="matrix(1 0 0 -1 0 841)" d="M319.08 318.5698L544.08 318.5698L544.08 48.56979L319.08 48.56979z" stroke="none" fill="#FFFFFF" fill-rule="nonzero" /><path id="418" transform="matrix(1 0 0 -1 0 841)" d="M319.44 318.5698L319.08 318.5698L319.08 318.2098L544.08 318.2098L544.08 318.5698L543.72 318.5698L543.72 48.5698L544.08 48.5698L544.08 48.9298L319.08 48.9298L319.08 48.5698L319.44 48.5698zM318.72 48.5698L318.72 48.2098L319.08 48.2098L544.08 48.2098L544.44 48.2098L544.44 48.5698L544.44 318.5698L544.44 318.9298L544.08 318.9298L319.08 318.9298L318.72 318.9298L318.72 318.5698z" stroke="none" fill="#000000" fill-rule="nonzero" /></g></g></svg>