<svg xmlns="http://www.w3.org/2000/svg" xmlns:xlink="http://www.w3.org/1999/xlink" id="body_14" preserveAspectRatio="xMinYMin meet" viewBox="0 0 793 1121"><defs><clipPath id="1"><path id="" clip-rule="evenodd" d="M0 841L0 -0.8900146L0 -0.8900146L595.276 -0.8900146L595.276 -0.8900146L595.276 841L595.276 841L0 841z" /></clipPath></defs><g transform="matrix(1.333333 0 0 1.333333 0 0)"><g clip-path="url(#1)"><g transform="matrix(0.750137 0 0 0.7498976 133.32 221.5902)"><g transform="matrix(1 0 0 1 0 0)"><image x="0" y="0" xlink:href="img_34.png" width="438" height="293" /></g></g><path id="343" transform="matrix(1 0 0 -1 0 841)" d="M229.08 263.1298L553.08 263.1298L553.08 110.1298L229.08 110.1298z" stroke="none" fill="#FFFFFF" fill-rule="nonzero" /><path id="344" transform="matrix(1 0 0 -1 0 841)" d="M229.44 263.1298L229.08 263.1298L229.08 262.7698L553.08 262.7698L553.08 263.1298L552.72 263.1298L552.72 110.1298L553.08 110.1298L553.08 110.4898L229.08 110.4898L229.08 110.1298L229.44 110.1298zM228.72 110.1298L228.72 109.7698L229.08 109.7698L553.08 109.7698L553.44 109.7698L553.44 110.1298L553.44 263.1298L553.44 263.4898L553.08 263.4898L229.08 263.4898L228.72 263.4898L228.72 263.1298z" stroke="none" fill="#000000" fill-rule="nonzero" /></g></g></svg>