<svg xmlns="http://www.w3.org/2000/svg" xmlns:xlink="http://www.w3.org/1999/xlink" id="body_7" preserveAspectRatio="xMinYMin meet" viewBox="0 0 793 1121"><defs><clipPath id="1"><path id="" clip-rule="evenodd" d="M0 841L0 -0.8900146L0 -0.8900146L595.276 -0.8900146L595.276 -0.8900146L595.276 841L595.276 841L0 841z" /></clipPath></defs><g transform="matrix(1.333333 0 0 1.333333 0 0)"><g clip-path="url(#1)"><g transform="matrix(0.749894 0 0 0.75 90 71.11023)"><g transform="matrix(1 0 0 1 0 0)"><image x="0" y="0" xlink:href="img_14.png" width="566" height="272" /></g></g><g transform="matrix(0.5002028 0 0 0.5027027 90 406.0302)"><g transform="matrix(1 0 0 1 0 0)"><image x="0" y="0" xlink:href="img_15.png" width="493" height="370" /></g></g><path id="195" transform="matrix(1 0 0 -1 0 841)" d="M337.08 461.7298L589.08 461.7298L589.08 263.7298L337.08 263.7298z" stroke="none" fill="#FFFFFF" fill-rule="nonzero" /><path id="196" transform="matrix(1 0 0 -1 0 841)" d="M337.44 461.7298L337.08 461.7298L337.08 461.3698L589.08 461.3698L589.08 461.7298L588.72 461.7298L588.72 263.7298L589.08 263.7298L589.08 264.0898L337.08 264.0898L337.08 263.7298L337.44 263.7298zM336.72 263.7298L336.72 263.3698L337.08 263.3698L589.08 263.3698L589.44 263.3698L589.44 263.7298L589.44 461.7298L589.44 462.0898L589.08 462.0898L337.08 462.0898L336.72 462.0898L336.72 461.7298z" stroke="none" fill="#000000" fill-rule="nonzero" /></g></g></svg>