<svg xmlns="http://www.w3.org/2000/svg" xmlns:xlink="http://www.w3.org/1999/xlink" id="body_11" preserveAspectRatio="xMinYMin meet" viewBox="0 0 793 1121"><defs><clipPath id="1"><path id="" clip-rule="evenodd" d="M0 841L0 -0.8900146L0 -0.8900146L595.276 -0.8900146L595.276 -0.8900146L595.276 841L595.276 841L0 841z" /></clipPath><clipPath id="2"><path id="" clip-rule="evenodd" d="M557.04 840.9102L306.24 840.9102L306.24 840.9102L306.24 735.4302L306.24 735.4302L557.04 735.4302z" /></clipPath><clipPath id="3"><path id="" clip-rule="evenodd" d="M387 750.4302L380.88 750.4302L380.88 750.4302L380.88 743.2302L380.88 743.2302L387 743.2302z" /></clipPath></defs><g transform="matrix(1.333333 0 0 1.333333 0 0)"><g clip-path="url(#1)"><g transform="matrix(0.5555224 0 0 0.5564308 186 71.11023)"><g transform="matrix(1 0 0 1 0 0)"><image x="0" y="0" xlink:href="img_26.png" width="402" height="325" /></g></g><g transform="matrix(0.4520108 0 0 0.4508271 213.36 452.5902)"><g transform="matrix(1 0 0 1 0 0)"><image x="0" y="0" xlink:href="img_27.png" width="373" height="399" /></g></g><path id="325" transform="matrix(1 0 0 -1 0 841)" d="M310.08 101.7298L553.08 101.7298L553.08 0.08979797L310.08 0.08979797z" stroke="none" fill="#FFFFFF" fill-rule="nonzero" /><g clip-path="url(#2)"><path id="326" transform="matrix(1 0 0 -1 0 841)" d="M310.44 101.7298L310.08 101.7298L310.08 101.3698L553.08 101.3698L553.08 101.7298L552.72 101.7298L552.72 -33.2702L553.08 -33.2702L553.08 -32.9102L310.08 -32.9102L310.08 -33.2702L310.44 -33.2702zM309.72 -33.2702L309.72 -33.6302L310.08 -33.6302L553.08 -33.6302L553.44 -33.6302L553.44 -33.2702L553.44 101.7298L553.44 102.0898L553.08 102.0898L310.08 102.0898L309.72 102.0898L309.72 101.7298z" stroke="none" fill="#000000" fill-rule="nonzero" /></g><g clip-path="url(#3)"></g></g></g></svg>