<svg xmlns="http://www.w3.org/2000/svg" xmlns:xlink="http://www.w3.org/1999/xlink" id="body_9" preserveAspectRatio="xMinYMin meet" viewBox="0 0 793 1121"><defs><clipPath id="1"><path id="" clip-rule="evenodd" d="M0 841L0 -0.8900146L0 -0.8900146L595.276 -0.8900146L595.276 -0.8900146L595.276 841L595.276 841L0 841z" /></clipPath><clipPath id="2"><path id="" clip-rule="evenodd" d="M494.04 840.9102L117.24 840.9102L117.24 840.9102L117.24 630.0702L117.24 630.0702L494.04 630.0702z" /></clipPath></defs><g transform="matrix(1.333333 0 0 1.333333 0 0)"><g clip-path="url(#1)"><g transform="matrix(0.7500855 0 0 0.7496908 165.96 188.1102)"><g transform="matrix(1 0 0 1 0 0)"><image x="0" y="0" xlink:href="img_20.png" width="351" height="291" /></g></g><g transform="matrix(0.24 0 0 0.24 90 423.1902)"><g transform="matrix(1 0 0 1 0 0)"><image x="0" y="0" xlink:href="img_21.png" width="1515" height="334" /></g></g><g transform="matrix(0.24 0 0 0.24 90 503.3502)"><g transform="matrix(1 0 0 1 0 0)"><image x="0" y="0" xlink:href="img_22.png" width="1515" height="334" /></g></g><path id="237" transform="matrix(1 0 0 -1 0 841)" d="M121.08 207.0898L490.08 207.0898L490.08 0.08979797L121.08 0.08979797z" stroke="none" fill="#FFFFFF" fill-rule="nonzero" /><g clip-path="url(#2)"><path id="238" transform="matrix(1 0 0 -1 0 841)" d="M121.44 207.0898L121.08 207.0898L121.08 206.7298L490.08 206.7298L490.08 207.0898L489.72 207.0898L489.72 -44.9102L490.08 -44.9102L490.08 -44.5502L121.08 -44.5502L121.08 -44.9102L121.44 -44.9102zM120.72 -44.9102L120.72 -45.2702L121.08 -45.2702L490.08 -45.2702L490.44 -45.2702L490.44 -44.9102L490.44 207.0898L490.44 207.4498L490.08 207.4498L121.08 207.4498L120.72 207.4498L120.72 207.0898z" stroke="none" fill="#000000" fill-rule="nonzero" /></g></g></g></svg>