<svg xmlns="http://www.w3.org/2000/svg" xmlns:xlink="http://www.w3.org/1999/xlink" id="body_9" preserveAspectRatio="xMinYMin meet" viewBox="0 0 793 1121"><defs><clipPath id="1"><path id="" clip-rule="evenodd" d="M0 841L0 -0.8900146L0 -0.8900146L595.276 -0.8900146L595.276 -0.8900146L595.276 841L595.276 841L0 841z" /></clipPath><clipPath id="2"><path id="" clip-rule="evenodd" d="M296.64 148.3902L291.24 148.3902L291.24 148.3902L291.24 131.7102L291.24 131.7102L296.64 131.7102z" /></clipPath><clipPath id="3"><path id="" clip-rule="evenodd" d="M301.68 148.3902L296.64 148.3902L296.64 148.3902L296.64 131.7102L296.64 131.7102L301.68 131.7102z" /></clipPath><clipPath id="4"><path id="" clip-rule="evenodd" d="M314.64 148.3902L309.24 148.3902L309.24 148.3902L309.24 131.7102L309.24 131.7102L314.64 131.7102z" /></clipPath><clipPath id="5"><path id="" clip-rule="evenodd" d="M319.68 148.3902L314.64 148.3902L314.64 148.3902L314.64 131.7102L314.64 131.7102L319.68 131.7102z" /></clipPath><clipPath id="6"><path id="" clip-rule="evenodd" d="M399 148.3902L328.44 148.3902L328.44 148.3902L328.44 131.7102L328.44 131.7102L399 131.7102z" /></clipPath><clipPath id="7"><path id="" clip-rule="evenodd" d="M298.56 303.6702L291.24 303.6702L291.24 303.6702L291.24 298.8702L291.24 298.8702L298.56 298.8702z" /></clipPath><clipPath id="8"><path id="" clip-rule="evenodd" d="M303.6 303.6702L298.56 303.6702L298.56 303.6702L298.56 298.8702L298.56 298.8702L303.6 298.8702z" /></clipPath><clipPath id="9"><path id="" clip-rule="evenodd" d="M309.24 303.6702L303.6 303.6702L303.6 303.6702L303.6 301.3902L303.6 301.3902L309.24 301.3902z" /></clipPath><clipPath id="10"><path id="" clip-rule="evenodd" d="M316.56 303.6702L309.24 303.6702L309.24 303.6702L309.24 298.8702L309.24 298.8702L316.56 298.8702z" /></clipPath><clipPath id="11"><path id="" clip-rule="evenodd" d="M321.6 303.6702L316.56 303.6702L316.56 303.6702L316.56 298.8702L316.56 298.8702L321.6 298.8702z" /></clipPath><clipPath id="12"><path id="" clip-rule="evenodd" d="M336 303.6702L328.68 303.6702L328.68 303.6702L328.68 298.8702L328.68 298.8702L336 298.8702z" /></clipPath><clipPath id="13"><path id="" clip-rule="evenodd" d="M351 303.6702L336 303.6702L336 303.6702L336 297.6702L336 297.6702L351 297.6702z" /></clipPath><clipPath id="14"><path id="" clip-rule="evenodd" d="M402.6 303.6702L351 303.6702L351 303.6702L351 298.8702L351 298.8702L402.6 298.8702z" /></clipPath><clipPath id="15"><path id="" clip-rule="evenodd" d="M410.88 303.6702L402.6 303.6702L402.6 303.6702L402.6 298.8702L402.6 298.8702L410.88 298.8702z" /></clipPath></defs><g transform="matrix(1.333333 0 0 1.333333 0 0)"><g clip-path="url(#1)"><g transform="matrix(0.4878 0 0 0.4861417 155.04 113.1102)"><g transform="matrix(1 0 0 1 0 0)"><image x="0" y="0" xlink:href="img_18.png" width="200" height="508" /></g></g><g transform="matrix(0.5553061 0 0 0.5522147 90 359.9502)"><g transform="matrix(1 0 0 1 0 0)"><image x="0" y="0" xlink:href="img_19.png" width="196" height="447" /></g></g><path id="126" transform="matrix(1 0 0 -1 0 841)" d="M265.56 713.2498L436.56 713.2498L436.56 533.2498L265.56 533.2498z" stroke="none" fill="#FFFFFF" fill-rule="nonzero" /><path id="127" transform="matrix(1 0 0 -1 0 841)" d="M265.92 713.2498L265.56 713.2498L265.56 712.8898L436.56 712.8898L436.56 713.2498L436.2 713.2498L436.2 533.2498L436.56 533.2498L436.56 533.6098L265.56 533.6098L265.56 533.2498L265.92 533.2498zM265.2 533.2498L265.2 532.8898L265.56 532.8898L436.56 532.8898L436.92 532.8898L436.92 533.2498L436.92 713.2498L436.92 713.6098L436.56 713.6098L265.56 713.6098L265.2 713.6098L265.2 713.2498z" stroke="none" fill="#000000" fill-rule="nonzero" /><g clip-path="url(#2)"></g><g clip-path="url(#3)"></g><g clip-path="url(#4)"></g><g clip-path="url(#5)"></g><g clip-path="url(#6)"></g><g clip-path="url(#7)"></g><g clip-path="url(#8)"></g><g clip-path="url(#9)"></g><g clip-path="url(#10)"></g><g clip-path="url(#11)"></g><g clip-path="url(#12)"></g><g clip-path="url(#13)"></g><g clip-path="url(#14)"></g><g clip-path="url(#15)"></g></g></g></svg>