<svg xmlns="http://www.w3.org/2000/svg" xmlns:xlink="http://www.w3.org/1999/xlink" id="body_1" preserveAspectRatio="xMinYMin meet" viewBox="0 0 793 1121"><defs><clipPath id="1"><path id="" clip-rule="evenodd" d="M0 841L0 -0.8900146L0 -0.8900146L595.276 -0.8900146L595.276 -0.8900146L595.276 841L595.276 841L0 841z" /></clipPath></defs><g transform="matrix(1.333333 0 0 1.333333 0 0)"><g clip-path="url(#1)"><path id="47" transform="matrix(1 0 0 -1 0 841)" d="M90 652.0498L93.6 652.0498L93.6 650.9698L90 650.9698z" stroke="none" fill="#000000" fill-rule="nonzero" /><path id="58" transform="matrix(1 0 0 -1 0 841)" d="M90 635.2498L157.2 635.2498L157.2 634.1698L90 634.1698z" stroke="none" fill="#000000" fill-rule="nonzero" /><path id="227" transform="matrix(1 0 0 -1 0 841)" d="M90 551.7298L150.96 551.7298L150.96 550.6498L90 550.6498z" stroke="none" fill="#000000" fill-rule="nonzero" /></g></g></svg>